<svg version="1.1" id="Layer_1" xmlns="http://www.w3.org/2000/svg" xmlns:xlink="http://www.w3.org/1999/xlink" x="0px" y="0px"
	 width="100%" viewBox="0 0 512 512" enable-background="new 0 0 512 512" xml:space="preserve">
<path fill="#010100" opacity="1.000000" stroke="none" 
	d="
M284.000000,513.000000 
	C189.356308,513.000000 95.212616,513.000000 1.034460,513.000000 
	C1.034460,342.397949 1.034460,171.795883 1.034460,1.096914 
	C171.560379,1.096914 342.120819,1.096914 512.840637,1.096914 
	C512.840637,171.666550 512.840637,342.333252 512.840637,513.000000 
	C436.795868,513.000000 360.647919,513.000000 284.000000,513.000000 
M353.288116,241.092484 
	C345.928040,244.252823 342.000824,249.945190 342.431030,257.841309 
	C342.830719,265.177246 346.530090,270.657104 354.711884,273.301300 
	C362.857574,275.100555 369.825470,272.471619 373.826630,266.089355 
	C377.588959,260.088043 377.152466,251.969757 372.769073,246.418396 
	C368.259003,240.706589 361.080902,238.671371 353.288116,241.092484 
M234.443207,234.658813 
	C228.691864,230.596542 222.940506,226.534271 217.005203,222.342056 
	C203.062637,242.142288 188.949951,262.184082 174.457199,282.765625 
	C187.845032,283.506836 198.692062,288.221039 209.030045,295.814728 
	C212.855728,299.339233 216.681396,302.863739 220.634109,306.505249 
	C230.278976,284.317993 239.913391,262.154755 249.596527,239.879456 
	C244.349579,238.161209 239.664795,236.627075 234.443207,234.658813 
M175.807724,384.813507 
	C178.727539,384.204590 181.720169,383.830048 184.555420,382.949005 
	C204.274643,376.821381 216.473129,357.433258 213.921356,336.452362 
	C211.599152,317.358948 194.650040,301.135223 175.078476,299.946503 
	C148.985901,298.639618 128.575531,317.851318 129.021423,343.298706 
	C129.447815,367.633575 150.817566,386.872864 175.807724,384.813507 
M257.118408,154.778076 
	C236.474350,155.224136 221.861877,170.909729 223.003143,191.398712 
	C224.013290,209.533966 240.841553,224.151932 259.722504,222.756027 
	C261.358856,222.497849 263.011566,222.316147 264.628998,221.969727 
	C281.436066,218.369934 293.047577,201.726471 290.879669,184.380371 
	C288.796295,167.710876 274.222778,154.683594 257.118408,154.778076 
M240.888596,495.967804 
	C246.128311,495.967804 251.368011,495.967804 257.028320,495.967804 
	C257.028320,490.208008 257.112305,484.952209 257.006042,479.700317 
	C256.885864,473.762817 253.766388,470.520355 247.815094,470.257172 
	C244.526062,470.111725 241.218597,470.383545 237.006958,470.295807 
	C190.406631,470.281769 143.806290,470.267120 97.205963,470.258087 
	C96.208725,470.257904 95.196541,470.225952 94.216782,470.375549 
	C89.723038,471.061523 86.747192,473.654999 86.458038,478.177979 
	C86.090347,483.929779 86.369026,489.722870 86.369026,495.962860 
	C88.433640,495.962860 90.055733,495.962830 91.677818,495.962830 
	C106.823006,495.962830 121.968201,495.978027 137.113373,495.959839 
	C171.395004,495.918671 205.676605,495.861084 240.888596,495.967804 
M200.221985,394.891785 
	C174.593674,407.260712 151.074203,403.513824 129.470352,385.080444 
	C121.849518,407.922485 114.398865,430.254425 106.916855,452.680389 
	C107.796257,452.904785 108.261185,453.127533 108.725967,453.127228 
	C145.488708,453.102814 182.251450,453.060883 219.935608,453.182129 
	C225.216064,453.182129 230.496521,453.182129 236.586517,453.182129 
	C228.864243,430.060547 221.393082,407.690887 213.873108,385.175049 
	C209.197174,388.626556 205.070511,391.672607 200.221985,394.891785 
M346.566589,82.421021 
	C337.662811,78.743996 328.759033,75.066971 319.157593,71.105225 
	C312.501404,69.160408 305.785339,67.393860 299.216827,65.188004 
	C296.362793,64.229553 293.812103,62.367790 290.991333,60.131432 
	C289.021973,48.851048 286.981140,37.582405 285.124115,26.283564 
	C284.517334,22.591612 282.873779,19.822468 279.113495,19.330690 
	C275.041931,18.798199 270.883087,18.932751 265.915253,18.427275 
	C255.769958,18.656717 245.618286,18.741306 235.482498,19.187067 
	C231.441681,19.364777 229.508286,22.130556 228.894302,26.108912 
	C227.396469,35.814404 225.681854,45.486237 224.099045,55.178886 
	C222.956894,62.172958 221.655777,63.774162 214.496780,65.379379 
	C191.860336,70.454971 170.786148,79.208908 151.257370,91.737053 
	C145.672821,95.319656 143.229019,95.093933 137.646896,91.100784 
	C129.655289,85.384018 121.632988,79.709435 113.686829,73.930161 
	C110.093636,71.316811 106.608986,70.970825 103.340042,74.189514 
	C93.735252,83.646614 84.205627,93.180191 74.668236,102.705513 
	C70.944160,106.424866 71.256180,110.181358 74.298714,114.284904 
	C80.250038,122.311630 85.940788,130.531021 91.832863,138.602432 
	C94.746880,142.594299 94.863747,146.430756 92.156639,150.593277 
	C79.135574,170.614914 70.126518,192.331390 65.121803,215.677856 
	C64.018379,220.825226 60.990131,223.263809 55.944614,224.029388 
	C46.071644,225.527451 36.252136,227.382050 26.372725,228.831619 
	C21.571632,229.536041 19.138634,232.127335 19.101501,236.761459 
	C18.993547,250.234482 18.993170,263.709534 19.103607,277.182526 
	C19.141645,281.823029 21.625896,284.414093 26.388958,285.128540 
	C36.099979,286.585236 45.745338,288.491760 55.468094,289.853546 
	C60.993858,290.627533 64.041801,293.204956 65.245659,298.766083 
	C70.223152,321.759186 79.040619,343.208771 91.931381,362.921143 
	C94.863747,367.405304 94.783600,371.455078 91.577438,375.782959 
	C85.629250,383.812134 79.655304,391.844452 74.228981,400.223206 
	C72.776512,402.465912 71.834175,407.118347 73.103912,408.697021 
	C79.826065,417.054840 87.328682,424.784882 95.143181,433.372559 
	C96.147583,430.628326 96.681114,429.272614 97.143082,427.892883 
	C102.477150,411.961823 107.579346,395.948273 113.221619,380.127289 
	C115.960526,372.447327 117.147644,365.525421 114.339981,357.184357 
	C111.849525,349.785645 109.396034,342.582458 105.745407,335.646545 
	C88.425568,302.740051 82.557983,267.674255 88.342865,231.064072 
	C103.347511,136.105957 191.452957,72.939468 285.988617,88.883919 
	C408.129700,109.484322 468.138062,251.690643 397.532043,353.439209 
	C394.718933,357.493134 393.395905,361.364166 393.441132,366.278168 
	C393.551544,378.280273 386.532074,384.742828 374.406342,385.136169 
	C371.554749,385.228699 368.209595,386.377014 366.022919,388.173462 
	C344.796997,405.611145 320.894562,417.514740 294.114410,423.550690 
	C278.450714,427.081146 262.558990,428.361572 245.985809,427.305359 
	C248.825546,435.895294 251.468552,444.098785 254.310287,452.232819 
	C254.682343,453.297729 255.925247,454.417419 257.017639,454.812408 
	C263.282745,457.077637 267.733459,461.367310 271.310242,467.615692 
	C272.626221,476.540497 273.942230,485.465302 275.288788,494.597504 
	C281.529144,495.411713 284.006042,493.691345 285.203979,486.953308 
	C287.209625,475.672516 289.164368,464.382660 291.694244,452.690491 
	C293.946320,451.439728 296.070465,449.797424 298.474579,449.011932 
	C305.544891,446.701965 312.726227,444.731964 320.609772,442.660675 
	C329.411102,438.800690 338.212433,434.940674 347.726868,430.982727 
	C352.605774,428.174927 357.530060,425.442566 362.352295,422.540588 
	C368.645111,418.753662 370.617157,418.802246 376.738678,423.171600 
	C383.751953,428.177368 390.793335,433.143768 398.061554,438.601868 
	C398.384583,438.695465 398.707642,438.789032 399.476044,439.122406 
	C399.637146,439.172211 399.798218,439.222015 400.281799,439.894165 
	C404.166779,443.293457 407.883789,442.678925 411.325073,439.268921 
	C420.534576,430.143158 429.810516,421.079102 438.814850,411.753754 
	C443.343597,407.063599 443.226715,404.853119 439.428284,399.495300 
	C434.039429,391.894165 428.590393,384.335754 423.176117,376.752655 
	C418.718262,370.509033 418.675140,368.552155 422.802399,361.876556 
	C423.589813,360.602997 424.395874,359.340546 425.163788,358.055328 
	C436.690948,338.763092 445.102478,318.266754 449.579010,295.578461 
	C452.312958,293.716339 454.811371,291.032837 457.830963,290.167023 
	C463.698944,288.484589 469.859436,287.822449 476.715729,286.857666 
	C480.487518,286.246460 484.254517,285.603790 488.032318,285.032349 
	C492.261627,284.392548 494.789185,281.909332 494.837860,277.722595 
	C494.997955,263.945648 494.970062,250.165237 494.862946,236.387360 
	C494.834442,232.718872 492.986755,229.898651 489.185547,229.168900 
	C484.797119,228.326462 480.336639,227.859131 475.138733,226.994003 
	C469.778076,226.035645 464.447205,224.817215 459.047577,224.199585 
	C454.565948,223.686935 451.214264,221.937958 449.099182,217.116364 
	C444.365326,193.537109 435.401001,171.664917 422.338928,151.500381 
	C419.208832,146.668289 419.193939,142.456894 422.697662,137.801773 
	C428.596191,129.964935 434.109985,121.839706 439.913330,113.929497 
	C442.836395,109.945229 442.844147,106.248009 439.363708,102.752663 
	C429.870148,93.218437 420.419678,83.636711 410.729462,74.305046 
	C406.895905,70.613304 404.176727,71.006935 399.267395,74.930130 
	C391.428101,80.473793 383.519287,85.922684 375.776794,91.598389 
	C371.459290,94.763359 367.466797,94.793060 362.951416,91.965179 
	C357.781311,88.727234 352.334198,85.931580 346.566589,82.421021 
M294.246765,153.261383 
	C300.406799,159.859314 304.273224,167.643600 306.768158,176.289490 
	C307.530579,178.931488 309.150085,181.797211 311.238525,183.510208 
	C326.436646,195.976105 341.814087,208.225418 357.257385,220.387573 
	C359.090851,221.831497 361.583862,222.807068 363.907013,223.203537 
	C390.020447,227.660110 401.698059,255.027771 386.888397,277.101807 
	C385.854340,278.643097 385.097229,280.711456 385.082153,282.541870 
	C384.945068,299.202667 384.972382,315.865204 385.048798,332.526794 
	C385.056000,334.098419 385.727722,335.667053 386.256012,337.950653 
	C415.177277,298.679352 425.184875,220.386002 375.982056,159.790817 
	C324.714905,96.653343 231.838501,84.664391 165.786285,133.508041 
	C98.402931,183.336044 91.773445,267.285370 116.872047,318.273163 
	C123.941467,303.541168 134.741058,292.961884 149.743256,286.770569 
	C151.000397,286.251740 152.025513,284.871155 152.864822,283.683472 
	C170.649323,258.517120 188.439407,233.354218 206.037201,208.057617 
	C207.239624,206.329163 207.300797,203.549866 207.270020,201.267685 
	C207.169754,193.830627 205.487854,186.169846 206.749161,179.006226 
	C210.286240,158.917206 222.463898,145.285355 241.908981,139.331619 
	C261.577881,133.309311 279.050110,138.328995 294.246765,153.261383 
M337.160034,384.122467 
	C323.944214,378.649902 319.595428,349.674652 330.369781,338.874908 
	C330.604858,338.639252 330.949066,338.459229 331.076538,338.178070 
	C332.034485,336.065033 333.703094,333.950958 333.754120,331.804077 
	C334.022888,320.485962 333.710846,309.154755 333.931458,297.834564 
	C334.125854,287.859741 334.746429,277.890533 327.856628,269.484619 
	C326.640381,268.000763 325.594666,266.122772 324.015991,265.229645 
	C308.227692,256.297546 292.357025,247.510498 276.479370,238.737213 
	C272.030701,236.279083 269.429596,237.157425 267.416382,241.770950 
	C255.305466,269.524689 243.203949,297.282715 231.213867,325.088715 
	C230.407120,326.959625 229.994141,329.327209 230.326004,331.308319 
	C232.243591,342.755981 231.300873,353.830566 227.053085,364.667755 
	C226.453247,366.198059 226.377274,368.277618 226.877792,369.840729 
	C230.783875,382.039185 234.786194,394.210419 239.063812,406.281952 
	C239.612076,407.829132 241.832336,409.691559 243.416245,409.830353 
	C277.160370,412.786926 308.536621,405.382324 337.484985,387.774292 
	C338.516937,387.146606 339.409912,386.290497 340.620941,385.342590 
	C339.378235,384.891266 338.601898,384.609314 337.160034,384.122467 
M331.138916,221.368713 
	C323.036469,214.892014 314.934052,208.415298 307.698547,202.631577 
	C302.307892,211.306702 297.212067,219.507355 292.029022,227.848404 
	C303.206421,234.045105 314.875519,240.514404 325.672516,246.500198 
	C330.458801,239.977692 334.822693,234.030731 339.315643,227.907974 
	C337.140137,226.173752 334.413727,224.000336 331.138916,221.368713 
M367.967896,325.426727 
	C367.967896,313.711151 367.967896,301.995575 367.967896,290.661499 
	C361.952240,290.661499 356.593018,290.661499 351.171021,290.661499 
	C351.171021,304.895325 351.171021,319.116180 351.171021,333.571991 
	C356.793671,333.571991 362.162811,333.571991 367.967896,333.571991 
	C367.967896,330.979614 367.967896,328.689697 367.967896,325.426727 
M376.449707,364.136841 
	C376.449707,359.852081 376.449707,355.567352 376.449707,351.179962 
	C364.865936,351.179962 353.811523,351.179962 342.555573,351.179962 
	C342.555573,356.823486 342.555573,362.198853 342.555573,367.961639 
	C353.298462,367.961639 363.731598,368.023560 374.160309,367.836151 
	C374.938080,367.822205 375.683746,366.022247 376.449707,364.136841 
z"/>
<path fill="#9D9D9D" opacity="1.000000" stroke="none" 
	d="
M399.959290,439.271820 
	C399.798218,439.222015 399.637146,439.172211 399.093628,438.815063 
	C398.464020,438.266388 398.167786,438.139557 397.822510,438.127258 
	C390.793335,433.143768 383.751953,428.177368 376.738678,423.171600 
	C370.617157,418.802246 368.645111,418.753662 362.352295,422.540588 
	C357.530060,425.442566 352.605774,428.174927 347.156494,430.750488 
	C345.107361,430.159698 343.199524,429.024139 342.218140,429.566132 
	C334.665558,433.737030 327.292694,438.233429 319.864105,442.628845 
	C312.726227,444.731964 305.544891,446.701965 298.474579,449.011932 
	C296.070465,449.797424 293.946320,451.439728 291.033203,452.944153 
	C288.314667,453.781128 286.289734,454.668579 284.193817,454.892975 
	C276.817657,455.682678 271.533295,458.552856 271.183289,466.881439 
	C267.733459,461.367310 263.282745,457.077637 257.017639,454.812408 
	C255.925247,454.417419 254.682343,453.297729 254.310287,452.232819 
	C251.468552,444.098785 248.825546,435.895294 245.985809,427.305359 
	C262.558990,428.361572 278.450714,427.081146 294.114410,423.550690 
	C320.894562,417.514740 344.796997,405.611145 366.022919,388.173462 
	C368.209595,386.377014 371.554749,385.228699 374.406342,385.136169 
	C386.532074,384.742828 393.551544,378.280273 393.441132,366.278168 
	C393.395905,361.364166 394.718933,357.493134 397.532043,353.439209 
	C468.138062,251.690643 408.129700,109.484322 285.988617,88.883919 
	C191.452957,72.939468 103.347511,136.105957 88.342865,231.064072 
	C82.557983,267.674255 88.425568,302.740051 105.745407,335.646545 
	C109.396034,342.582458 111.849525,349.785645 114.339981,357.184357 
	C117.147644,365.525421 115.960526,372.447327 113.221619,380.127289 
	C107.579346,395.948273 102.477150,411.961823 97.143082,427.892883 
	C96.681114,429.272614 96.147583,430.628326 95.143181,433.372559 
	C87.328682,424.784882 79.826065,417.054840 73.103912,408.697021 
	C71.834175,407.118347 72.776512,402.465912 74.228981,400.223206 
	C79.655304,391.844452 85.629250,383.812134 91.577438,375.782959 
	C94.783600,371.455078 94.863747,367.405304 91.931381,362.921143 
	C79.040619,343.208771 70.223152,321.759186 65.245659,298.766083 
	C64.041801,293.204956 60.993858,290.627533 55.468094,289.853546 
	C45.745338,288.491760 36.099979,286.585236 26.388958,285.128540 
	C21.625896,284.414093 19.141645,281.823029 19.103607,277.182526 
	C18.993170,263.709534 18.993547,250.234482 19.101501,236.761459 
	C19.138634,232.127335 21.571632,229.536041 26.372725,228.831619 
	C36.252136,227.382050 46.071644,225.527451 55.944614,224.029388 
	C60.990131,223.263809 64.018379,220.825226 65.121803,215.677856 
	C70.126518,192.331390 79.135574,170.614914 92.156639,150.593277 
	C94.863747,146.430756 94.746880,142.594299 91.832863,138.602432 
	C85.940788,130.531021 80.250038,122.311630 74.298714,114.284904 
	C71.256180,110.181358 70.944160,106.424866 74.668236,102.705513 
	C84.205627,93.180191 93.735252,83.646614 103.340042,74.189514 
	C106.608986,70.970825 110.093636,71.316811 113.686829,73.930161 
	C121.632988,79.709435 129.655289,85.384018 137.646896,91.100784 
	C143.229019,95.093933 145.672821,95.319656 151.257370,91.737053 
	C170.786148,79.208908 191.860336,70.454971 214.496780,65.379379 
	C221.655777,63.774162 222.956894,62.172958 224.099045,55.178886 
	C225.681854,45.486237 227.396469,35.814404 228.894302,26.108912 
	C229.508286,22.130556 231.441681,19.364777 235.482498,19.187067 
	C245.618286,18.741306 255.769958,18.656717 266.378418,18.967985 
	C268.569458,29.484118 270.498962,39.430580 271.937958,49.447502 
	C272.629700,54.263031 274.195343,57.348946 279.537201,58.018475 
	C283.458832,58.510002 287.265656,59.917194 291.123657,60.916309 
	C293.812103,62.367790 296.362793,64.229553 299.216827,65.188004 
	C305.785339,67.393860 312.501404,69.160408 319.640625,71.545364 
	C327.082001,75.984657 333.943817,80.172295 341.079132,83.825745 
	C342.525513,84.566315 345.004486,83.290169 347.007416,82.943771 
	C352.334198,85.931580 357.781311,88.727234 362.951416,91.965179 
	C367.466797,94.793060 371.459290,94.763359 375.776794,91.598389 
	C383.519287,85.922684 391.428101,80.473793 399.725128,75.176575 
	C406.539368,82.228722 413.010864,88.931412 419.222961,95.866470 
	C426.816681,104.343880 427.023102,111.009628 420.437927,120.077583 
	C415.253479,127.216774 409.973083,134.296127 405.102570,141.645477 
	C404.098694,143.160278 403.820190,146.318695 404.728607,147.762314 
	C417.094971,167.414963 425.721527,188.576370 430.987518,211.141403 
	C431.676819,214.095062 433.031342,215.757126 436.289490,216.042770 
	C440.586212,216.419495 444.840973,217.275055 449.113770,217.924744 
	C451.214264,221.937958 454.565948,223.686935 459.047577,224.199585 
	C464.447205,224.817215 469.778076,226.035645 475.555267,227.494934 
	C480.356934,247.581955 480.136017,267.162292 475.898743,286.737640 
	C469.859436,287.822449 463.698944,288.484589 457.830963,290.167023 
	C454.811371,291.032837 452.312958,293.716339 448.927277,295.840149 
	C445.000458,296.672943 441.719360,297.741638 438.451599,297.702301 
	C433.117310,297.638092 431.469025,300.438385 430.375275,305.098419 
	C425.433563,326.153107 417.370087,345.989136 405.702942,364.229584 
	C403.343384,367.918518 403.245300,370.508331 405.915497,373.948334 
	C411.114960,380.646637 415.940826,387.635803 420.893494,394.524597 
	C426.649109,402.530334 426.553192,408.624023 420.528412,416.296936 
	C419.092590,418.125519 417.540131,419.866516 415.981842,421.594177 
	C410.655273,427.499573 405.302246,433.381165 399.959290,439.271820 
z"/>
<path fill="#6F6F6F" opacity="1.000000" stroke="none" 
	d="
M294.008789,152.998169 
	C279.050110,138.328995 261.577881,133.309311 241.908981,139.331619 
	C222.463898,145.285355 210.286240,158.917206 206.749161,179.006226 
	C205.487854,186.169846 207.169754,193.830627 207.270020,201.267685 
	C207.300797,203.549866 207.239624,206.329163 206.037201,208.057617 
	C188.439407,233.354218 170.649323,258.517120 152.864822,283.683472 
	C152.025513,284.871155 151.000397,286.251740 149.743256,286.770569 
	C134.741058,292.961884 123.941467,303.541168 116.872047,318.273163 
	C91.773445,267.285370 98.402931,183.336044 165.786285,133.508041 
	C231.838501,84.664391 324.714905,96.653343 375.982056,159.790817 
	C425.184875,220.386002 415.177277,298.679352 386.256012,337.950653 
	C385.727722,335.667053 385.056000,334.098419 385.048798,332.526794 
	C384.972382,315.865204 384.945068,299.202667 385.082153,282.541870 
	C385.097229,280.711456 385.854340,278.643097 386.888397,277.101807 
	C401.698059,255.027771 390.020447,227.660110 363.907013,223.203537 
	C361.583862,222.807068 359.090851,221.831497 357.257385,220.387573 
	C341.814087,208.225418 326.436646,195.976105 311.238525,183.510208 
	C309.150085,181.797211 307.530579,178.931488 306.768158,176.289490 
	C304.273224,167.643600 300.406799,159.859314 294.008789,152.998169 
z"/>
<path fill="#707070" opacity="1.000000" stroke="none" 
	d="
M337.492798,384.224915 
	C338.601898,384.609314 339.378235,384.891266 340.620941,385.342590 
	C339.409912,386.290497 338.516937,387.146606 337.484985,387.774292 
	C308.536621,405.382324 277.160370,412.786926 243.416245,409.830353 
	C241.832336,409.691559 239.612076,407.829132 239.063812,406.281952 
	C234.786194,394.210419 230.783875,382.039185 226.877792,369.840729 
	C226.377274,368.277618 226.453247,366.198059 227.053085,364.667755 
	C231.300873,353.830566 232.243591,342.755981 230.326004,331.308319 
	C229.994141,329.327209 230.407120,326.959625 231.213867,325.088715 
	C243.203949,297.282715 255.305466,269.524689 267.416382,241.770950 
	C269.429596,237.157425 272.030701,236.279083 276.479370,238.737213 
	C292.357025,247.510498 308.227692,256.297546 324.015991,265.229645 
	C325.594666,266.122772 326.640381,268.000763 327.856628,269.484619 
	C334.746429,277.890533 334.125854,287.859741 333.931458,297.834564 
	C333.710846,309.154755 334.022888,320.485962 333.754120,331.804077 
	C333.703094,333.950958 332.034485,336.065033 331.076538,338.178070 
	C330.949066,338.459229 330.604858,338.639252 330.369781,338.874908 
	C319.595428,349.674652 323.944214,378.649902 337.492798,384.224915 
z"/>
<path fill="#FE5722" opacity="1.000000" stroke="none" 
	d="
M219.014191,453.020325 
	C182.251450,453.060883 145.488708,453.102814 108.725967,453.127228 
	C108.261185,453.127533 107.796257,452.904785 106.916855,452.680389 
	C114.398865,430.254425 121.849518,407.922485 129.470352,385.080444 
	C151.074203,403.513824 174.593674,407.260712 200.614578,395.210938 
	C206.484161,412.274750 211.989090,429.010345 217.406067,445.774384 
	C218.163422,448.118195 218.488831,450.601562 219.014191,453.020325 
z"/>
<path fill="#FF9801" opacity="1.000000" stroke="none" 
	d="
M239.958221,495.810181 
	C205.676605,495.861084 171.395004,495.918671 137.113373,495.959839 
	C121.968201,495.978027 106.823006,495.962830 91.677818,495.962830 
	C90.055733,495.962830 88.433640,495.962860 86.369026,495.962860 
	C86.369026,489.722870 86.090347,483.929779 86.458038,478.177979 
	C86.747192,473.654999 89.723038,471.061523 94.216782,470.375549 
	C95.196541,470.225952 96.208725,470.257904 97.205963,470.258087 
	C143.806290,470.267120 190.406631,470.281769 237.565582,470.730713 
	C238.735550,479.380493 239.346878,487.595337 239.958221,495.810181 
z"/>
<path fill="#FE9701" opacity="1.000000" stroke="none" 
	d="
M258.929443,222.606293 
	C240.841553,224.151932 224.013290,209.533966 223.003143,191.398712 
	C221.861877,170.909729 236.474350,155.224136 257.730774,155.163834 
	C259.119995,156.416916 259.863831,157.316696 260.678619,158.146790 
	C277.036713,174.812103 278.546448,197.114395 264.530609,215.673859 
	C262.741211,218.043320 260.800201,220.298279 258.929443,222.606293 
z"/>
<path fill="#FC9601" opacity="1.000000" stroke="none" 
	d="
M175.009872,384.702332 
	C150.817566,386.872864 129.447815,367.633575 129.021423,343.298706 
	C128.575531,317.851318 148.985901,298.639618 175.721924,300.309265 
	C179.387650,303.753967 182.638321,306.646606 185.383453,309.958313 
	C190.686539,316.355988 195.273941,323.180847 195.047806,331.711243 
	C194.460236,330.685364 194.079346,329.945312 193.638718,329.242767 
	C187.088562,318.798798 175.227356,314.329132 163.820129,317.997284 
	C152.691132,321.576019 145.321747,332.396576 146.093826,344.025024 
	C146.875061,355.791534 155.626740,365.391571 167.585144,367.599670 
	C178.378571,369.592651 187.987320,364.493469 195.303253,353.273926 
	C195.324814,354.853516 195.362610,356.196777 194.995758,357.418518 
	C191.559418,368.863007 184.354553,377.572144 175.009872,384.702332 
z"/>
<path fill="#6F6F6F" opacity="1.000000" stroke="none" 
	d="
M400.120544,439.583008 
	C405.302246,433.381165 410.655273,427.499573 415.981842,421.594177 
	C417.540131,419.866516 419.092590,418.125519 420.528412,416.296936 
	C426.553192,408.624023 426.649109,402.530334 420.893494,394.524597 
	C415.940826,387.635803 411.114960,380.646637 405.915497,373.948334 
	C403.245300,370.508331 403.343384,367.918518 405.702942,364.229584 
	C417.370087,345.989136 425.433563,326.153107 430.375275,305.098419 
	C431.469025,300.438385 433.117310,297.638092 438.451599,297.702301 
	C441.719360,297.741638 445.000458,296.672943 448.689331,296.084656 
	C445.102478,318.266754 436.690948,338.763092 425.163788,358.055328 
	C424.395874,359.340546 423.589813,360.602997 422.802399,361.876556 
	C418.675140,368.552155 418.718262,370.509033 423.176117,376.752655 
	C428.590393,384.335754 434.039429,391.894165 439.428284,399.495300 
	C443.226715,404.853119 443.343597,407.063599 438.814850,411.753754 
	C429.810516,421.079102 420.534576,430.143158 411.325073,439.268921 
	C407.883789,442.678925 404.166779,443.293457 400.120544,439.583008 
z"/>
<path fill="#6F6F6F" opacity="1.000000" stroke="none" 
	d="
M449.106476,217.520554 
	C444.840973,217.275055 440.586212,216.419495 436.289490,216.042770 
	C433.031342,215.757126 431.676819,214.095062 430.987518,211.141403 
	C425.721527,188.576370 417.094971,167.414963 404.728607,147.762314 
	C403.820190,146.318695 404.098694,143.160278 405.102570,141.645477 
	C409.973083,134.296127 415.253479,127.216774 420.437927,120.077583 
	C427.023102,111.009628 426.816681,104.343880 419.222961,95.866470 
	C413.010864,88.931412 406.539368,82.228722 400.070312,75.091293 
	C404.176727,71.006935 406.895905,70.613304 410.729462,74.305046 
	C420.419678,83.636711 429.870148,93.218437 439.363708,102.752663 
	C442.844147,106.248009 442.836395,109.945229 439.913330,113.929497 
	C434.109985,121.839706 428.596191,129.964935 422.697662,137.801773 
	C419.193939,142.456894 419.208832,146.668289 422.338928,151.500381 
	C435.401001,171.664917 444.365326,193.537109 449.106476,217.520554 
z"/>
<path fill="#FD5622" opacity="1.000000" stroke="none" 
	d="
M208.662079,295.250763 
	C198.692062,288.221039 187.845032,283.506836 174.457199,282.765625 
	C188.949951,262.184082 203.062637,242.142288 217.005203,222.342056 
	C222.940506,226.534271 228.691864,230.596542 234.646179,235.233658 
	C231.131165,244.651077 227.541122,253.550201 223.662903,262.321930 
	C218.785904,273.352722 213.673126,284.279236 208.662079,295.250763 
z"/>
<path fill="#F17A00" opacity="1.000000" stroke="none" 
	d="
M195.226685,332.014496 
	C195.273941,323.180847 190.686539,316.355988 185.383453,309.958313 
	C182.638321,306.646606 179.387650,303.753967 176.175659,300.406219 
	C194.650040,301.135223 211.599152,317.358948 213.921356,336.452362 
	C216.473129,357.433258 204.274643,376.821381 184.555420,382.949005 
	C181.720169,383.830048 178.727539,384.204590 175.408798,384.757935 
	C184.354553,377.572144 191.559418,368.863007 194.995758,357.418518 
	C195.362610,356.196777 195.324814,354.853516 195.336304,352.888855 
	C198.049240,345.482910 197.612717,338.750092 195.226685,332.014496 
z"/>
<path fill="#FB5521" opacity="1.000000" stroke="none" 
	d="
M331.413086,221.597809 
	C334.413727,224.000336 337.140137,226.173752 339.315643,227.907974 
	C334.822693,234.030731 330.458801,239.977692 325.672516,246.500198 
	C314.875519,240.514404 303.206421,234.045105 292.029022,227.848404 
	C297.212067,219.507355 302.307892,211.306702 307.698547,202.631577 
	C314.934052,208.415298 323.036469,214.892014 331.413086,221.597809 
z"/>
<path fill="#D64315" opacity="1.000000" stroke="none" 
	d="
M219.474899,453.101227 
	C218.488831,450.601562 218.163422,448.118195 217.406067,445.774384 
	C211.989090,429.010345 206.484161,412.274750 200.975494,395.124390 
	C205.070511,391.672607 209.197174,388.626556 213.873108,385.175049 
	C221.393082,407.690887 228.864243,430.060547 236.586517,453.182129 
	C230.496521,453.182129 225.216064,453.182129 219.474899,453.101227 
z"/>
<path fill="#D64215" opacity="1.000000" stroke="none" 
	d="
M208.846069,295.532745 
	C213.673126,284.279236 218.785904,273.352722 223.662903,262.321930 
	C227.541122,253.550201 231.131165,244.651077 234.914581,235.450714 
	C239.664795,236.627075 244.349579,238.161209 249.596527,239.879456 
	C239.913391,262.154755 230.278976,284.317993 220.634109,306.505249 
	C216.681396,302.863739 212.855728,299.339233 208.846069,295.532745 
z"/>
<path fill="#F27B00" opacity="1.000000" stroke="none" 
	d="
M259.325989,222.681152 
	C260.800201,220.298279 262.741211,218.043320 264.530609,215.673859 
	C278.546448,197.114395 277.036713,174.812103 260.678619,158.146790 
	C259.863831,157.316696 259.119995,156.416916 258.167603,155.265793 
	C274.222778,154.683594 288.796295,167.710876 290.879669,184.380371 
	C293.047577,201.726471 281.436066,218.369934 264.628998,221.969727 
	C263.011566,222.316147 261.358856,222.497849 259.325989,222.681152 
z"/>
<path fill="#6F6F6F" opacity="1.000000" stroke="none" 
	d="
M476.307251,286.797668 
	C480.136017,267.162292 480.356934,247.581955 475.939636,227.612396 
	C480.336639,227.859131 484.797119,228.326462 489.185547,229.168900 
	C492.986755,229.898651 494.834442,232.718872 494.862946,236.387360 
	C494.970062,250.165237 494.997955,263.945648 494.837860,277.722595 
	C494.789185,281.909332 492.261627,284.392548 488.032318,285.032349 
	C484.254517,285.603790 480.487518,286.246460 476.307251,286.797668 
z"/>
<path fill="#FC5622" opacity="1.000000" stroke="none" 
	d="
M367.967896,325.913269 
	C367.967896,328.689697 367.967896,330.979614 367.967896,333.571991 
	C362.162811,333.571991 356.793671,333.571991 351.171021,333.571991 
	C351.171021,319.116180 351.171021,304.895325 351.171021,290.661499 
	C356.593018,290.661499 361.952240,290.661499 367.967896,290.661499 
	C367.967896,301.995575 367.967896,313.711151 367.967896,325.913269 
z"/>
<path fill="#707070" opacity="1.000000" stroke="none" 
	d="
M291.057495,60.523872 
	C287.265656,59.917194 283.458832,58.510002 279.537201,58.018475 
	C274.195343,57.348946 272.629700,54.263031 271.937958,49.447502 
	C270.498962,39.430580 268.569458,29.484118 266.801941,19.142540 
	C270.883087,18.932751 275.041931,18.798199 279.113495,19.330690 
	C282.873779,19.822468 284.517334,22.591612 285.124115,26.283564 
	C286.981140,37.582405 289.021973,48.851048 291.057495,60.523872 
z"/>
<path fill="#02A7F1" opacity="1.000000" stroke="none" 
	d="
M376.447021,364.594727 
	C375.683746,366.022247 374.938080,367.822205 374.160309,367.836151 
	C363.731598,368.023560 353.298462,367.961639 342.555573,367.961639 
	C342.555573,362.198853 342.555573,356.823486 342.555573,351.179962 
	C353.811523,351.179962 364.865936,351.179962 376.449707,351.179962 
	C376.449707,355.567352 376.449707,359.852081 376.447021,364.594727 
z"/>
<path fill="#6F6F6F" opacity="1.000000" stroke="none" 
	d="
M271.246765,467.248566 
	C271.533295,458.552856 276.817657,455.682678 284.193817,454.892975 
	C286.289734,454.668579 288.314667,453.781128 290.756317,453.147217 
	C289.164368,464.382660 287.209625,475.672516 285.203979,486.953308 
	C284.006042,493.691345 281.529144,495.411713 275.288788,494.597504 
	C273.942230,485.465302 272.626221,476.540497 271.246765,467.248566 
z"/>
<path fill="#F17A00" opacity="1.000000" stroke="none" 
	d="
M353.993164,241.094864 
	C361.080902,238.671371 368.259003,240.706589 372.769073,246.418396 
	C377.152466,251.969757 377.588959,260.088043 373.826630,266.089355 
	C369.825470,272.471619 362.857574,275.100555 354.518005,272.798889 
	C361.120697,261.822662 361.078918,251.421402 353.993164,241.094864 
z"/>
<path fill="#E17900" opacity="1.000000" stroke="none" 
	d="
M240.423401,495.888977 
	C239.346878,487.595337 238.735550,479.380493 238.021820,470.816467 
	C241.218597,470.383545 244.526062,470.111725 247.815094,470.257172 
	C253.766388,470.520355 256.885864,473.762817 257.006042,479.700317 
	C257.112305,484.952209 257.028320,490.208008 257.028320,495.967804 
	C251.368011,495.967804 246.128311,495.967804 240.423401,495.888977 
z"/>
<path fill="#FC9601" opacity="1.000000" stroke="none" 
	d="
M353.640625,241.093674 
	C361.078918,251.421402 361.120697,261.822662 354.161865,272.597870 
	C346.530090,270.657104 342.830719,265.177246 342.431030,257.841309 
	C342.000824,249.945190 345.928040,244.252823 353.640625,241.093674 
z"/>
<path fill="#6D6D6D" opacity="1.000000" stroke="none" 
	d="
M320.236938,442.644775 
	C327.292694,438.233429 334.665558,433.737030 342.218140,429.566132 
	C343.199524,429.024139 345.107361,430.159698 346.799927,430.799438 
	C338.212433,434.940674 329.411102,438.800690 320.236938,442.644775 
z"/>
<path fill="#6D6D6D" opacity="1.000000" stroke="none" 
	d="
M346.786987,82.682388 
	C345.004486,83.290169 342.525513,84.566315 341.079132,83.825745 
	C333.943817,80.172295 327.082001,75.984657 319.989471,71.687714 
	C328.759033,75.066971 337.662811,78.743996 346.786987,82.682388 
z"/>
<path fill="#6F6F6F" opacity="1.000000" stroke="none" 
	d="
M397.942017,438.364563 
	C398.167786,438.139557 398.464020,438.266388 398.870941,438.695190 
	C398.707642,438.789032 398.384583,438.695465 397.942017,438.364563 
z"/>
<path fill="#030200" opacity="1.000000" stroke="none" 
	d="
M195.047806,331.711243 
	C197.612717,338.750092 198.049240,345.482910 195.164825,352.596130 
	C187.987320,364.493469 178.378571,369.592651 167.585144,367.599670 
	C155.626740,365.391571 146.875061,355.791534 146.093826,344.025024 
	C145.321747,332.396576 152.691132,321.576019 163.820129,317.997284 
	C175.227356,314.329132 187.088562,318.798798 193.638718,329.242767 
	C194.079346,329.945312 194.460236,330.685364 195.047806,331.711243 
M179.505295,345.599976 
	C180.842422,341.553741 180.301239,337.572052 176.507034,335.626831 
	C174.076630,334.380768 169.979965,333.910980 167.873337,335.171173 
	C165.554947,336.558014 163.690414,340.224030 163.389709,343.082458 
	C163.004669,346.742157 165.756241,349.501801 169.501160,350.504639 
	C173.745255,351.641113 176.884750,349.908600 179.505295,345.599976 
z"/>
<path fill="#999999" opacity="1.000000" stroke="none" 
	d="
M179.318375,345.949280 
	C176.884750,349.908600 173.745255,351.641113 169.501160,350.504639 
	C165.756241,349.501801 163.004669,346.742157 163.389709,343.082458 
	C163.690414,340.224030 165.554947,336.558014 167.873337,335.171173 
	C169.979965,333.910980 174.076630,334.380768 176.507034,335.626831 
	C180.301239,337.572052 180.842422,341.553741 179.318375,345.949280 
z"/>
</svg>
