<?xml version="1.0" encoding="UTF-8"?>
<svg version="1.1" xmlns="http://www.w3.org/2000/svg" width="512" height="512">
<path d="M0 0 C0.94679123 -0.0033284 1.89358246 -0.0066568 2.86906433 -0.01008606 C4.86688758 -0.01513437 6.86471921 -0.01749503 8.86254883 -0.01733398 C11.89744169 -0.01951649 14.93196841 -0.03768372 17.96679688 -0.05664062 C19.91536335 -0.05957589 21.86393154 -0.0615598 23.8125 -0.0625 C24.70967239 -0.06968552 25.60684479 -0.07687103 26.53120422 -0.08427429 C35.88260563 -0.05085357 43.66036325 1.04316358 50.69921875 7.66796875 C57.8995882 15.29188934 58.80832584 25.21923855 60.29296875 35.23046875 C60.47021484 36.38224609 60.64746094 37.53402344 60.83007812 38.72070312 C61.26222057 41.53546879 61.68717515 44.35111768 62.10546875 47.16796875 C62.8833374 47.40805664 63.66120605 47.64814453 64.46264648 47.89550781 C104.31672301 60.33290476 104.31672301 60.33290476 119.59936523 70.89086914 C122.01676164 72.38653171 122.01676164 72.38653171 124.65673828 72.03051758 C127.26595461 71.11143869 129.07752497 70.02746573 131.28515625 68.3671875 C132.04957031 67.80193359 132.81398438 67.23667969 133.6015625 66.65429688 C134.77912109 65.76387695 134.77912109 65.76387695 135.98046875 64.85546875 C152.61294282 52.40180035 152.61294282 52.40180035 164.10546875 53.16796875 C176.98067448 55.38699095 186.56635307 67.2857503 195.35546875 76.10546875 C196.29648437 77.03037109 197.2375 77.95527344 198.20703125 78.90820312 C206.59520005 87.29049785 214.28566807 95.31412139 215.41796875 107.54296875 C214.69027235 115.98424703 211.14017879 122.21971747 206.16796875 128.91796875 C205.64267578 129.64628906 205.11738281 130.37460938 204.57617188 131.125 C202.37316073 134.16344591 200.21564459 137.04880256 197.6640625 139.80859375 C195.85664063 142.08243871 195.85664063 142.08243871 196.0703125 144.94140625 C197.44038404 149.21189339 199.47746277 152.89299643 201.66796875 156.79296875 C210.20148398 172.52453165 215.99556537 189.0575347 221.10546875 206.16796875 C221.94207031 206.29848633 222.77867187 206.42900391 223.640625 206.56347656 C226.78093796 207.05991031 229.91903225 207.56827586 233.05615234 208.08447266 C234.40728273 208.30434925 235.75917062 208.51962742 237.11181641 208.72998047 C248.23767642 210.46505546 256.38314616 212.21058502 263.69921875 221.22265625 C268.65133612 228.07308528 268.26281303 236.56083907 268.2734375 244.6875 C268.2767659 245.58611252 268.2800943 246.48472504 268.28352356 247.41056824 C268.28856477 249.30406181 268.29093276 251.19756418 268.29077148 253.09106445 C268.29295414 255.961252 268.31112938 258.83105235 268.33007812 261.70117188 C268.33301355 263.55077995 268.33499735 265.40038983 268.3359375 267.25 C268.34312302 268.0951265 268.35030853 268.94025299 268.35771179 269.81098938 C268.32197867 279.30599926 267.33716582 287.62291482 260.60546875 294.7578125 C252.99127304 301.96662279 243.04996949 302.87145306 233.04296875 304.35546875 C231.89119141 304.53271484 230.73941406 304.70996094 229.55273438 304.89257812 C226.73796871 305.32472057 223.92231982 305.74967515 221.10546875 306.16796875 C220.86538086 306.9458374 220.62529297 307.72370605 220.37792969 308.52514648 C207.94053274 348.37922301 207.94053274 348.37922301 197.38256836 363.66186523 C195.88690579 366.07926164 195.88690579 366.07926164 196.24291992 368.71923828 C197.16199881 371.32845461 198.24597177 373.14002497 199.90625 375.34765625 C200.47150391 376.11207031 201.03675781 376.87648438 201.61914062 377.6640625 C202.50956055 378.84162109 202.50956055 378.84162109 203.41796875 380.04296875 C215.87163715 396.67544282 215.87163715 396.67544282 215.10546875 408.16796875 C212.92666242 420.80983405 201.40479737 430.21303104 192.73046875 438.85546875 C191.86164063 439.74041016 190.9928125 440.62535156 190.09765625 441.53710938 C181.50187371 450.13924974 173.24130807 458.11383344 160.85546875 459.54296875 C149.73969272 458.43139115 142.14295901 452.6374112 133.609375 445.9453125 C132.99078613 445.46175293 132.37219727 444.97819336 131.73486328 444.47998047 C130.45174275 443.44679351 129.21909385 442.35091926 128.0078125 441.234375 C126.07478468 439.94335683 126.07478468 439.94335683 123.39453125 440.1953125 C119.05774842 441.47780529 115.41024297 443.52322388 111.48046875 445.73046875 C95.74890585 454.26398398 79.2159028 460.05806537 62.10546875 465.16796875 C61.97495117 466.00457031 61.84443359 466.84117187 61.70996094 467.703125 C61.21352719 470.84343796 60.70516164 473.98153225 60.18896484 477.11865234 C59.96908825 478.46978273 59.75381008 479.82167062 59.54345703 481.17431641 C57.80838204 492.30017642 56.06285248 500.44564616 47.05078125 507.76171875 C40.51252269 512.48817072 32.5876351 512.31706772 24.78721619 512.31513977 C23.57177977 512.3206548 23.57177977 512.3206548 22.33178908 512.32628125 C19.63126102 512.33724717 16.93077152 512.34114968 14.23022461 512.3449707 C12.28821187 512.35124034 10.34620032 512.35788759 8.40419006 512.36488342 C2.04290593 512.38585356 -4.31837827 512.39627408 -10.6796875 512.40625 C-12.87215118 512.41029915 -15.06461474 512.41441612 -17.25707817 512.41860008 C-27.55134984 512.43763034 -37.8456144 512.45187012 -48.13990027 512.46021205 C-60.02047042 512.46999927 -71.900855 512.49636655 -83.78135973 512.53671294 C-92.96963061 512.56684642 -102.15784816 512.581678 -111.3461675 512.58499306 C-116.83263394 512.5873452 -122.3189016 512.59632834 -127.80531502 512.62145424 C-132.9624582 512.64469372 -138.11927109 512.64898479 -143.27645302 512.63869286 C-145.16870471 512.63819651 -147.06097245 512.64454604 -148.95317459 512.6582489 C-151.53693461 512.6759135 -154.11950191 512.66888909 -156.70326233 512.65571594 C-157.82549614 512.67216981 -157.82549614 512.67216981 -158.97040135 512.68895608 C-164.08440364 512.62602753 -166.94384263 511.36395175 -170.89453125 508.16796875 C-176.94828462 501.45975556 -176.10955817 495.12319057 -176.14453125 486.48046875 C-176.16515625 485.22556641 -176.18578125 483.97066406 -176.20703125 482.67773438 C-176.24764729 473.03650173 -175.26909083 466.00258854 -168.578125 458.7109375 C-165.15542413 455.57412347 -161.65711807 453.16796875 -156.89453125 453.16796875 C-157.39013405 449.07543168 -158.2321015 447.39446625 -161.453125 444.84375 C-189.31274367 421.87679447 -189.31274367 421.87679447 -191.26953125 404.91796875 C-190.15783856 393.8010418 -184.38062839 386.28213289 -177.671875 377.76953125 C-173.45447843 372.88171449 -173.45447843 372.88171449 -171.921875 366.890625 C-173.35013907 362.89263281 -175.39849508 359.30992368 -177.45703125 355.60546875 C-185.96269525 339.83976564 -191.77945977 323.29570809 -196.89453125 306.16796875 C-197.73113281 306.03745117 -198.56773437 305.90693359 -199.4296875 305.77246094 C-202.57000046 305.27602719 -205.70809475 304.76766164 -208.84521484 304.25146484 C-210.19634523 304.03158825 -211.54823312 303.81631008 -212.90087891 303.60595703 C-224.02673892 301.87088204 -232.17220866 300.12535248 -239.48828125 291.11328125 C-244.44039862 284.26285222 -244.05187553 275.77509843 -244.0625 267.6484375 C-244.0658284 266.74982498 -244.0691568 265.85121246 -244.07258606 264.92536926 C-244.07762727 263.03187569 -244.07999526 261.13837332 -244.07983398 259.24487305 C-244.08201664 256.3746855 -244.10019188 253.50488515 -244.11914062 250.63476562 C-244.12207605 248.78515755 -244.12405985 246.93554767 -244.125 245.0859375 C-244.13218552 244.240811 -244.13937103 243.39568451 -244.14677429 242.52494812 C-244.11104117 233.02993824 -243.12622832 224.71302268 -236.39453125 217.578125 C-228.78033554 210.36931471 -218.83903199 209.46448444 -208.83203125 207.98046875 C-207.68025391 207.80322266 -206.52847656 207.62597656 -205.34179688 207.44335938 C-202.52703121 207.01121693 -199.71138232 206.58626235 -196.89453125 206.16796875 C-196.65444336 205.3901001 -196.41435547 204.61223145 -196.16699219 203.81079102 C-183.72959524 163.95671449 -183.72959524 163.95671449 -173.17163086 148.67407227 C-171.67582389 146.25635121 -171.67582389 146.25635121 -172.03198242 143.61450195 C-172.95017053 141.01015351 -174.02829637 139.21938303 -175.6953125 137.0234375 C-176.26056641 136.26353516 -176.82582031 135.50363281 -177.40820312 134.72070312 C-178.00181641 133.94017578 -178.59542969 133.15964844 -179.20703125 132.35546875 C-185.90351234 123.50840126 -191.64989852 115.68731957 -190.89453125 104.16796875 C-188.6798936 91.29386637 -176.77463064 81.70497272 -167.95703125 72.91796875 C-167.03212891 71.97695312 -166.10722656 71.0359375 -165.15429688 70.06640625 C-156.7447429 61.65095911 -148.82586001 54.19850668 -136.64453125 52.79296875 C-125.52875522 53.90454635 -117.93202151 59.6985263 -109.3984375 66.390625 C-108.77984863 66.87418457 -108.16125977 67.35774414 -107.52392578 67.85595703 C-106.24080525 68.88914399 -105.00815635 69.98501824 -103.796875 71.1015625 C-101.86384718 72.39258067 -101.86384718 72.39258067 -99.18359375 72.140625 C-94.84681092 70.85813221 -91.19930547 68.81271362 -87.26953125 66.60546875 C-71.53796835 58.07195352 -55.0049653 52.27787213 -37.89453125 47.16796875 C-37.76401367 46.33136719 -37.63349609 45.49476562 -37.49902344 44.6328125 C-37.00258969 41.49249954 -36.49422414 38.35440525 -35.97802734 35.21728516 C-35.75815075 33.86615477 -35.54287258 32.51426688 -35.33251953 31.16162109 C-33.59702359 20.03306179 -31.84913629 11.89837765 -22.84375 4.57421875 C-16.08062071 -0.30499276 -8.00572526 0.00986328 0 0 Z " fill="#010101" transform="translate(243.89453125,-0.16796875)"/>
<path d="M0 0 C0.99942627 0.00483398 1.99885254 0.00966797 3.02856445 0.01464844 C5.9569043 0.03821277 8.88446898 0.07681462 11.8125 0.125 C13.02679688 0.14385254 13.02679688 0.14385254 14.265625 0.16308594 C16.34578103 0.20763473 18.42148557 0.28262158 20.5 0.375 C21.63824219 0.42140625 22.77648437 0.4678125 23.94921875 0.515625 C27.58023979 1.28839346 28.53837578 2.20038192 30.8125 5.125 C31.5198099 7.88948847 32.00846801 10.40695493 32.375 13.21484375 C32.55204468 14.38715294 32.55204468 14.38715294 32.73266602 15.58314514 C33.10834154 18.07424868 33.46286482 20.56761699 33.8125 23.0625 C34.27355153 26.34542821 34.75554797 29.62429978 35.25 32.90234375 C35.34804932 33.65144516 35.44609863 34.40054657 35.54711914 35.17234802 C36.25834312 39.87867976 37.38643579 42.787047 40.8125 46.125 C43.38229609 47.0400696 45.60753317 47.66727511 48.25 48.1875 C49.70366846 48.51583224 51.15679077 48.84659128 52.609375 49.1796875 C53.32673828 49.33920898 54.04410156 49.49873047 54.78320312 49.66308594 C73.73898514 53.97785249 93.37916058 62.67968322 109.3125 73.8828125 C112.85367564 75.64233414 114.88497746 75.71659335 118.8125 75.125 C121.97761898 73.43932757 124.73640766 71.32223562 127.5625 69.125 C128.35237305 68.53501221 129.14224609 67.94502441 129.95605469 67.3371582 C133.40630377 64.75582155 136.81546513 62.12320246 140.21875 59.48046875 C141.1571875 58.76503906 142.095625 58.04960938 143.0625 57.3125 C143.85140625 56.68730469 144.6403125 56.06210938 145.453125 55.41796875 C148.5068402 53.74449238 150.35817986 53.80566158 153.8125 54.125 C161.55743916 58.60035963 167.9516961 65.98707411 174.1875 72.3125 C175.06277344 73.18841797 175.93804687 74.06433594 176.83984375 74.96679688 C187.54303598 85.74352249 187.54303598 85.74352249 188.3671875 89.96875 C187.59756826 94.3479919 185.54326208 97.09049428 182.9375 100.625 C182.44660889 101.31843506 181.95571777 102.01187012 181.44995117 102.72631836 C178.9762871 106.20719916 176.4362153 109.63314494 173.85546875 113.03515625 C173.39575684 113.65132813 172.93604492 114.2675 172.46240234 114.90234375 C171.5941492 116.0612826 170.71104162 117.20929369 169.81103516 118.34375 C167.80293326 121.02231071 166.81433081 123.11518126 166.19921875 126.4140625 C167.06896384 131.67685124 169.52965558 135.44573876 172.3125 139.9375 C182.88032122 157.72733975 191.41700371 176.89589409 194.87890625 197.42578125 C196.20125761 201.24898119 197.51635932 202.72593631 200.8125 205.125 C204.59481721 206.23309632 208.41018935 206.74048263 212.3125 207.25 C214.47305107 207.57157718 216.63321349 207.89577702 218.79296875 208.22265625 C219.8298584 208.37492676 220.86674805 208.52719727 221.93505859 208.68408203 C225.53342346 209.23546901 229.0684507 209.91013419 232.625 210.6875 C233.58019531 210.89503906 234.53539062 211.10257813 235.51953125 211.31640625 C238.10375546 212.22770849 239.09592189 213.01364786 240.8125 215.125 C242.69429862 222.56525865 241.96291519 231.00891486 241.9375 238.625 C241.94136719 239.78386719 241.94523437 240.94273437 241.94921875 242.13671875 C241.94545403 245.46849886 241.89546 248.79430977 241.8125 252.125 C241.79413086 253.08019531 241.77576172 254.03539062 241.75683594 255.01953125 C241.68770996 256.32470703 241.68770996 256.32470703 241.6171875 257.65625 C241.58351074 258.40455078 241.54983398 259.15285156 241.51513672 259.92382812 C240.41199702 263.37966812 238.64167545 264.89615149 235.8125 267.125 C233.04034947 267.90325017 230.66382305 268.40045214 227.84375 268.75 C227.08582153 268.86424316 226.32789307 268.97848633 225.54699707 269.09619141 C222.32500154 269.58119089 219.09688993 270.01780265 215.86865234 270.45898438 C213.50342559 270.78930464 211.14273335 271.14405173 208.78125 271.5 C208.05715942 271.58975098 207.33306885 271.67950195 206.58703613 271.77197266 C201.4940278 272.54319535 198.98739965 274.0952339 195.8125 278.125 C194.8350476 280.08022296 194.8350476 280.08022296 194.4765625 282.1015625 C194.30342529 282.84486816 194.13028809 283.58817383 193.9519043 284.35400391 C193.69727417 285.54002197 193.69727417 285.54002197 193.4375 286.75 C188.68361306 306.55052304 181.01706215 326.09389191 169.60595703 343.04199219 C166.88036176 347.27057576 165.95192998 350.14445101 166.8125 355.125 C168.50763599 358.28541034 170.6149036 361.04844362 172.8125 363.875 C173.40248779 364.66487305 173.99247559 365.45474609 174.6003418 366.26855469 C177.18167845 369.71880377 179.81429754 373.12796513 182.45703125 376.53125 C183.17246094 377.4696875 183.88789063 378.408125 184.625 379.375 C185.25019531 380.16390625 185.87539063 380.9528125 186.51953125 381.765625 C188.1938088 384.82080216 188.1344617 386.66886701 187.8125 390.125 C186.39868164 392.5534668 186.39868164 392.5534668 184.41015625 394.88671875 C183.67812988 395.74700684 182.94610352 396.60729492 182.19189453 397.49365234 C178.32882093 401.76578525 174.34193003 405.88475845 170.25 409.9375 C169.03280273 411.16629883 169.03280273 411.16629883 167.79101562 412.41992188 C156.68127731 423.4937934 156.68127731 423.4937934 150.84765625 424.77734375 C146.44508305 423.83110215 143.70273025 421.48667024 140.25 418.6875 C138.83447353 417.58837376 137.41779026 416.49073583 136 415.39453125 C135.29746094 414.84490723 134.59492188 414.2952832 133.87109375 413.72900391 C130.86858208 411.38952316 127.83494475 409.10446743 124.75 406.875 C123.76902344 406.14796875 122.78804688 405.4209375 121.77734375 404.671875 C117.9606813 402.68057285 116.08524623 402.46183418 111.8125 403.125 C108.32735921 404.7047502 105.12555768 406.67617095 101.875 408.6875 C93.70303013 413.55535991 85.58928592 417.81170118 76.75317383 421.34350586 C75.34497235 421.91057756 73.94465754 422.4973605 72.54956055 423.09594727 C65.19610118 426.18894722 57.7086021 428.00779717 49.93945312 429.74804688 C48.96298828 429.98458984 47.98652344 430.22113281 46.98046875 430.46484375 C46.10672607 430.66456787 45.2329834 430.86429199 44.33276367 431.07006836 C40.86776457 432.52044723 39.13788028 434.1712463 36.8125 437.125 C36.03424983 439.89715053 35.53704786 442.27367695 35.1875 445.09375 C35.07325684 445.85167847 34.95901367 446.60960693 34.84130859 447.39050293 C34.47866961 449.79962136 34.1423791 452.21119164 33.8125 454.625 C33.37776301 457.80607989 32.91603311 460.98149665 32.4375 464.15625 C32.34774902 464.88034058 32.25799805 465.60443115 32.16552734 466.35046387 C31.39753705 471.42212607 29.85764112 473.98652844 25.8125 477.125 C22.5 477.4375 22.5 477.4375 19.8125 477.125 C19.80839111 476.51092285 19.80428223 475.8968457 19.80004883 475.26416016 C20.05338225 457.98718792 20.05338225 457.98718792 12.13671875 443.28125 C9.38654652 440.69572223 7.67673983 439.25549449 3.86328125 438.6796875 C-0.52245222 436.44470425 -1.03092551 433.49987164 -2.55859375 428.96875 C-2.88988281 427.9065625 -3.22117188 426.844375 -3.5625 425.75 C-4.09423828 424.16832031 -4.09423828 424.16832031 -4.63671875 422.5546875 C-6.07051848 418.19239333 -7.1875 414.75159071 -7.1875 410.125 C-6.06859375 410.09921875 -4.9496875 410.0734375 -3.796875 410.046875 C38.46785832 408.69957716 80.31857636 397.63839139 112.40234375 368.796875 C115.34742768 366.75393185 117.0751217 366.69215253 120.625 366.6875 C126.48430831 366.34877 130.597883 365.35992841 134.8125 361.125 C138.10468526 356.43147641 138.89949019 352.14825757 138.9375 346.5 C139.28896363 340.25956791 141.90119837 336.49461271 145.45019531 331.61572266 C149.76506722 325.54366996 152.99272034 319.0933828 156.1875 312.375 C156.68677002 311.33384033 157.18604004 310.29268066 157.70043945 309.2199707 C162.61294783 298.77291824 166.19145472 288.56261419 168.5 277.25 C168.71205078 276.24453125 168.92410156 275.2390625 169.14257812 274.203125 C169.70825379 271.51215056 170.26478967 268.81968228 170.8125 266.125 C170.99498291 265.38660889 171.17746582 264.64821777 171.36547852 263.88745117 C172.01753612 259.8579417 171.99558904 255.86898118 172.015625 251.79296875 C172.02132507 250.88356033 172.02702515 249.97415192 172.03289795 249.03718567 C172.04233172 247.10984451 172.04887547 245.18248734 172.05273438 243.25512695 C172.06234058 240.36053622 172.09333724 237.46668689 172.125 234.57226562 C172.18923918 223.35127994 171.37793331 213.06281351 168.8125 202.125 C168.62961426 201.25238525 168.44672852 200.37977051 168.25830078 199.48071289 C159.05624464 156.12828493 130.42581508 119.06858079 93.8125 95.125 C72.34501487 81.41502408 48.17776341 73.58817704 23.03198242 70.40722656 C20.98209526 70.14656552 18.93608676 69.855873 16.890625 69.5625 C-25.4094321 64.37540103 -69.27687516 79.36466936 -102.45825195 105.234375 C-136.43142144 132.46788507 -159.4365496 171.11221483 -165.79492188 214.36108398 C-166.58671168 221.95251645 -166.5340436 229.56200624 -166.5 237.1875 C-166.49784485 238.05283356 -166.4956897 238.91816711 -166.49346924 239.8097229 C-166.44295777 252.4327724 -166.22673964 264.80693171 -163.1875 277.125 C-162.98882324 277.93308105 -162.79014648 278.74116211 -162.58544922 279.57373047 C-158.78160861 294.43862668 -153.07832226 308.44809744 -145.4375 321.75 C-141.48046771 328.87807871 -139.70281116 336.14924931 -138.1875 344.125 C-137.94620361 345.31706055 -137.70490723 346.50912109 -137.45629883 347.73730469 C-136.83152882 352.97399067 -138.43062469 357.25876678 -140.16015625 362.15234375 C-140.48028183 363.09952774 -140.80040741 364.04671173 -141.13023376 365.02259827 C-142.15471935 368.04142736 -143.20196208 371.05177728 -144.25 374.0625 C-144.92793166 376.04961931 -145.6043772 378.03724628 -146.27929688 380.02539062 C-150.16077901 391.42249633 -154.15574908 402.78028343 -158.1875 414.125 C-161.21998184 412.76647141 -163.33383598 411.23508073 -165.68359375 408.89453125 C-166.32490234 408.25580078 -166.96621094 407.61707031 -167.62695312 406.95898438 C-168.28630859 406.29189453 -168.94566406 405.62480469 -169.625 404.9375 C-170.28048828 404.28974609 -170.93597656 403.64199219 -171.61132812 402.97460938 C-181.55743231 392.98860106 -181.55743231 392.98860106 -182.83984375 387.16015625 C-181.89357479 382.75745577 -179.54901299 380.01545657 -176.75 376.5625 C-175.65095684 375.14560595 -174.55331773 373.72762179 -173.45703125 372.30859375 C-172.63259521 371.25454346 -172.63259521 371.25454346 -171.79150391 370.17919922 C-164.20965021 361.41757146 -164.20965021 361.41757146 -160.1875 351 C-160.78569073 346.49487606 -163.60946873 342.96927597 -166.12109375 339.30078125 C-177.45162066 321.88732495 -186.89964149 299.60767689 -189.66796875 278.9375 C-190.360767 276.52051964 -191.16703036 275.62504564 -193.1875 274.125 C-195.7814355 273.23648941 -195.7814355 273.23648941 -198.875 272.6875 C-200.71771484 272.31431641 -200.71771484 272.31431641 -202.59765625 271.93359375 C-206.15687094 271.27814083 -209.72718549 270.74229863 -213.30859375 270.22265625 C-214.37956299 270.06144287 -215.45053223 269.90022949 -216.55395508 269.73413086 C-218.70334681 269.4147899 -220.85564807 269.1143804 -223.01049805 268.83422852 C-230.49033562 267.71933777 -230.49033562 267.71933777 -233.8359375 264.8671875 C-236.45080484 259.56187862 -236.34639011 253.94289017 -236.35546875 248.12890625 C-236.35879715 247.37713608 -236.36212555 246.62536591 -236.36555481 245.85081482 C-236.37059409 244.26830655 -236.37296407 242.68578777 -236.37280273 241.10327148 C-236.37499024 238.69822515 -236.39318038 236.29363733 -236.41210938 233.88867188 C-236.41504384 232.34375155 -236.41702828 230.79882907 -236.41796875 229.25390625 C-236.42515427 228.5432753 -236.43233978 227.83264435 -236.43974304 227.10047913 C-236.41578585 221.79895995 -235.8636675 216.8774052 -233.06201172 212.27685547 C-230.02023374 210.4077348 -226.67155552 210.15529661 -223.1953125 209.6953125 C-221.58717596 209.45485218 -219.97910499 209.21395301 -218.37109375 208.97265625 C-215.84193827 208.60798275 -213.31211925 208.24994749 -210.78076172 207.90087891 C-208.3326374 207.55851395 -205.88931196 207.19082451 -203.4453125 206.8203125 C-202.69307404 206.72428741 -201.94083557 206.62826233 -201.165802 206.52932739 C-195.99428213 205.72841565 -193.3806425 204.26464769 -190.1875 200.125 C-189.12381939 197.79488439 -189.12381939 197.79488439 -188.66796875 195.30859375 C-188.45495117 194.38981445 -188.24193359 193.47103516 -188.02246094 192.52441406 C-187.80879883 191.54698242 -187.59513672 190.56955078 -187.375 189.5625 C-182.64540233 169.94365775 -174.81177756 150.74933759 -163.38671875 134.015625 C-161.01205679 130.18651201 -160.30292471 127.68357835 -161.1875 123.125 C-162.89192794 119.98996287 -164.9937693 117.24465779 -167.1875 114.4375 C-168.38015659 112.8459883 -169.57156197 111.25353821 -170.76171875 109.66015625 C-171.34614746 108.88816895 -171.93057617 108.11618164 -172.53271484 107.32080078 C-174.75078576 104.37755354 -176.89729298 101.40214038 -179 98.375 C-179.62519531 97.49328125 -180.25039062 96.6115625 -180.89453125 95.703125 C-182.52007641 92.4618567 -182.79485013 90.709286 -182.1875 87.125 C-180.56198161 84.87591218 -179.06804546 83.12018742 -177.125 81.1875 C-176.59567871 80.63900391 -176.06635742 80.09050781 -175.52099609 79.52539062 C-173.75856949 77.70946451 -171.97405275 75.91717526 -170.1875 74.125 C-168.87837638 72.79088432 -167.56979303 71.4562383 -166.26171875 70.12109375 C-150.8988114 54.54332056 -150.8988114 54.54332056 -146.375 53.4375 C-143.17491786 54.12771379 -141.7282005 54.93153596 -139.07421875 56.74609375 C-138.28023682 57.28838623 -137.48625488 57.83067871 -136.66821289 58.3894043 C-132.68534155 61.17596392 -128.74104981 64.01248883 -124.8125 66.875 C-123.24253179 68.01609884 -121.67223328 69.15674342 -120.1015625 70.296875 C-119.4204541 70.7928418 -118.7393457 71.28880859 -118.03759766 71.79980469 C-113.65902881 74.93610341 -111.63218301 75.7674726 -106.1875 75.125 C-102.84150992 73.62262629 -99.79486335 71.69030606 -96.6875 69.75 C-80.07688873 59.8502112 -62.94649232 52.72913402 -44.1875 48.125 C-42.20404787 47.62073251 -40.22391164 47.10290809 -38.25 46.5625 C-37.51910156 46.37558594 -36.78820312 46.18867187 -36.03515625 45.99609375 C-33.45316556 44.77879159 -32.67016822 43.58932896 -31.1875 41.125 C-30.57418947 38.38743934 -30.10153965 35.7688785 -29.72265625 33 C-29.47743035 31.39059195 -29.23198081 29.78121796 -28.98632812 28.171875 C-28.61485973 25.64461154 -28.24881391 23.1166886 -27.88793945 20.58789062 C-27.53427391 18.13962007 -27.16068516 15.69499775 -26.78515625 13.25 C-26.68396988 12.4957373 -26.58278351 11.74147461 -26.47853088 10.96435547 C-25.96345459 7.65550895 -25.37389363 5.37771928 -23.37207031 2.66357422 C-20.92916019 0.94305347 -19.59550325 0.55439819 -16.63671875 0.3828125 C-15.75677246 0.32770508 -14.87682617 0.27259766 -13.97021484 0.21582031 C-9.31062521 0.06374387 -4.66228132 -0.02363241 0 0 Z " fill="#9C9C9C" transform="translate(253.1875,16.875)"/>
<path d="M0 0 C1.25756104 0.3700415 1.25756104 0.3700415 2.54052734 0.74755859 C24.8413121 7.3418549 44.44147289 17.66151655 62 33 C62.49242187 33.42539063 62.98484375 33.85078125 63.4921875 34.2890625 C90.94539284 58.11900216 110.49244592 93.56415692 114 130 C114.11004677 132.67130192 114.18594692 135.31730527 114.203125 137.98828125 C114.21027527 138.72461288 114.21742554 139.46094452 114.22479248 140.21958923 C114.47520654 173.59604849 108.77937656 200.59896851 92 230 C91.01 229.67 90.02 229.34 89 229 C88.88371782 221.57608154 88.79508992 214.15236211 88.74093914 206.72771454 C88.71493794 203.27941019 88.67971811 199.83173271 88.62280273 196.38378906 C88.55765991 192.41218794 88.53374095 188.44083316 88.51171875 184.46875 C88.47300911 182.62766663 88.47300911 182.62766663 88.43351746 180.74938965 C88.43141201 174.27900101 88.79419464 169.84266186 92.79829407 164.62019348 C97.61645814 158.12413 97.08810267 147.71872832 96 140 C93.53534017 131.97173305 89.16120485 125.47126981 82 121 C76.99133407 118.50567103 71.97573974 116.47613548 66.53125 115.1640625 C62.52487266 113.84337616 59.74688114 111.8505278 56.5625 109.1875 C55.96759766 108.70539063 55.37269531 108.22328125 54.75976562 107.7265625 C52.83162904 106.16082749 50.91602715 104.58051928 49 103 C47.67681368 101.9219087 46.35258572 100.84509465 45.02734375 99.76953125 C43.01048266 98.13262298 40.99409682 96.4951881 38.98071289 94.85400391 C34.51739199 91.21770534 30.02399458 87.62297751 25.5 84.0625 C24.9227417 83.60286865 24.3454834 83.1432373 23.75073242 82.66967773 C20.7034875 80.25966067 17.60049597 78.12273791 14.3125 76.0625 C10.10777791 72.9689624 9.72092407 69.09755689 8.765625 64.16796875 C5.71927968 51.56293786 -3.3260461 42.64217874 -14 36 C-26.11864386 30.00710182 -40.0686245 27.48235292 -53.375 31.125 C-67.36100688 36.23024869 -78.19679765 44.64034357 -85 58 C-89.42440819 67.92219352 -90.97262123 80.4238912 -88.50268555 91.16210938 C-87.40624663 96.27238914 -88.13569273 98.90109882 -90.98046875 103.3125 C-92.35840266 105.22614839 -93.76225358 107.12132369 -95.1875 109 C-96.28819824 110.51231201 -96.28819824 110.51231201 -97.41113281 112.05517578 C-98.89735452 114.09605932 -100.3928919 116.1301935 -101.89794922 118.15722656 C-104.7510502 122.01570599 -107.50112159 125.94203954 -110.25 129.875 C-111.21253708 131.23768931 -112.17607069 132.5996753 -113.140625 133.9609375 C-116.09812377 138.13754242 -119.04936725 142.3185428 -122 146.5 C-122.99086626 147.90365936 -123.9817517 149.30730518 -124.97265625 150.7109375 C-127.06434032 153.67409973 -129.15539361 156.63770597 -131.24609375 159.6015625 C-131.78041016 160.35888672 -132.31472656 161.11621094 -132.86523438 161.89648438 C-133.87842055 163.33256565 -134.89145323 164.76875525 -135.90429688 166.20507812 C-136.82603461 167.5114074 -137.75169633 168.81497853 -138.68164062 170.11547852 C-139.55753102 171.36751517 -140.40579652 172.63935604 -141.22460938 173.92944336 C-144.11089558 178.35970617 -146.63186234 180.22169405 -151.625 182.3125 C-163.08499287 187.56763485 -170.31143467 195.50539834 -176.44140625 206.3125 C-178 209 -178 209 -180 211 C-184.37875136 200.84129684 -187.71132113 190.83712179 -190 180 C-190.26925293 178.86643066 -190.26925293 178.86643066 -190.54394531 177.70996094 C-192.30042244 169.55154584 -192.30417721 161.49047749 -192.26074219 153.18603516 C-192.25008068 150.76829591 -192.26065836 148.35130964 -192.2734375 145.93359375 C-192.28728732 132.5472318 -191.19939062 119.59239989 -187.375 106.6875 C-187.11485107 105.80215576 -186.85470215 104.91681152 -186.58666992 104.00463867 C-180.03663283 82.52259089 -169.00713711 63.63271397 -154 47 C-152.8117807 45.58393659 -151.62418368 44.16735053 -150.4375 42.75 C-128.03395975 17.49989228 -92.71466044 -0.90743307 -59.01367188 -3.82788086 C-39.46415583 -4.94440782 -18.84435643 -5.92059384 0 0 Z " fill="#6F6F6F" transform="translate(295,107)"/>
<path d="M0 0 C0.78616699 0.4338501 1.57233398 0.8677002 2.38232422 1.31469727 C3.27016602 1.80180176 4.15800781 2.28890625 5.07275391 2.79077148 C6.01795898 3.31558105 6.96316406 3.84039062 7.93701172 4.38110352 C8.9131543 4.91880371 9.88929688 5.45650391 10.89501953 6.01049805 C12.90076016 7.11642755 14.90531526 8.22450981 16.90869141 9.3347168 C19.57441448 10.81193805 22.24336436 12.28310709 24.91357422 13.75219727 C28.59831228 15.78261735 32.27289086 17.83025818 35.93945312 19.89331055 C37.63556653 20.84463778 39.33864155 21.78352682 41.04248047 22.72094727 C41.93580078 23.22754883 42.82912109 23.73415039 43.74951172 24.25610352 C44.48041016 24.66473633 45.21130859 25.07336914 45.96435547 25.49438477 C48.34983533 27.36544825 49.34745176 29.28243567 50.81201172 31.94360352 C51.21465744 32.46191238 51.61730316 32.98022125 52.03215027 33.51423645 C56.60087454 39.67674923 56.57074655 45.43783833 56.54638672 52.91235352 C56.5559137 54.14723511 56.56544067 55.3821167 56.57525635 56.65441895 C56.58738325 59.25648221 56.58661993 61.85863376 56.57373047 64.46069336 C56.56204637 68.43182597 56.61434676 72.39871545 56.67138672 76.36938477 C56.67527167 78.90453804 56.67539764 81.43970044 56.67138672 83.97485352 C56.70205231 85.74548157 56.70205231 85.74548157 56.7333374 87.55187988 C56.65091879 93.43773827 56.31851458 97.07410806 52.32080078 101.56665039 C51.37530365 102.4526593 51.37530365 102.4526593 50.41070557 103.35656738 C46.25599863 107.48097809 47.50510025 114.69949528 47.43701172 120.13110352 C47.39962891 121.24291992 47.36224609 122.35473633 47.32373047 123.50024414 C47.2483011 130.57803358 47.97161055 135.57042416 52.81201172 140.94360352 C55.98936936 143.40767679 59.22730897 145.17052474 62.81201172 146.94360352 C29.67581581 166.51730845 -0.29737891 171.58337049 -38.18798828 170.94360352 C-40.2479952 165.27953926 -42.27719681 159.60569002 -44.27929688 153.92089844 C-44.96375481 151.99086933 -45.65636289 150.06370959 -46.35742188 148.13964844 C-47.36710099 145.36410807 -48.34645825 142.57937141 -49.32080078 139.79125977 C-49.795634 138.51569969 -49.795634 138.51569969 -50.28005981 137.21437073 C-52.35032563 131.15973349 -52.16555872 126.99662592 -50.18798828 120.94360352 C-48.4064456 115.15306176 -48.22195338 110.53478539 -48.67602539 104.47314453 C-49.64620489 88.82558608 -45.02447932 77.58221345 -38.09176636 63.84257507 C-34.5609101 56.80916276 -31.51245202 49.58101147 -28.45648193 42.33172607 C-27.19785048 39.35216943 -25.92313519 36.37960994 -24.6489563 33.40667725 C-22.12276705 27.51016264 -19.62393398 21.60331937 -17.15673828 15.68188477 C-16.70258545 14.60471191 -16.24843262 13.52753906 -15.78051758 12.41772461 C-14.95325718 10.45520985 -14.13626827 8.48831939 -13.33178711 6.51635742 C-12.79074341 5.24091064 -12.79074341 5.24091064 -12.23876953 3.93969727 C-11.93624268 3.20936279 -11.63371582 2.47902832 -11.32202148 1.7265625 C-8.24472039 -3.11165707 -4.52736768 -2.18588707 0 0 Z " fill="#6F6F6F" transform="translate(277.18798828125,238.056396484375)"/>
<path d="M0 0 C2.83488403 1.37638861 5.17048456 2.83322053 7.625 4.8125 C19.91997707 14.13031996 33.71126023 17.54061539 49 16 C62.70857009 13.96921955 74.101201 8.42024528 85 0 C90.2924065 14.30971667 95.31890634 28.7032964 100.17373657 43.16671753 C100.76590335 44.92955387 101.36011972 46.69170306 101.95639038 48.45315552 C102.80139937 50.9524012 103.63819377 53.45424742 104.47265625 55.95703125 C104.7284848 56.71022644 104.98431335 57.46342163 105.24789429 58.23944092 C106.39317171 61.70531373 107 64.30837859 107 68 C64.43 68 21.86 68 -22 68 C-19.74983113 57.87424007 -19.74983113 57.87424007 -18.58300781 54.39257812 C-18.3222345 53.60725708 -18.06146118 52.82193604 -17.79278564 52.01281738 C-17.51569763 51.19390015 -17.23860962 50.37498291 -16.953125 49.53125 C-16.65944031 48.65206909 -16.36575562 47.77288818 -16.06317139 46.86706543 C-15.44331615 45.01418424 -14.82131413 43.16201998 -14.19726562 41.31054688 C-13.26235768 38.53666536 -12.3336858 35.7607626 -11.40625 32.984375 C-7.71210999 21.95065919 -3.9116624 10.95843372 0 0 Z " fill="#FD5621" transform="translate(128,384)"/>
<path d="M0 0 C0.82757813 0.42539062 1.65515625 0.85078125 2.5078125 1.2890625 C13.43508873 7.38876595 19.46861715 15.26193663 24.14453125 26.83203125 C27.30162041 38.52335228 25.29119649 51.20299842 19.52734375 61.67578125 C12.45520747 72.69360113 2.71520636 79.06572161 -10 82 C-24.02994177 83.55888242 -35.11592689 79.89198438 -46.16015625 71.32421875 C-53.80248589 64.44759459 -59.45578903 53.83373488 -60.2734375 43.56640625 C-60.71990607 31.16018044 -58.1876667 20.68406671 -49.93359375 10.9921875 C-37.32765374 -1.99575069 -17.06917175 -8.83346242 0 0 Z " fill="#FB9500" transform="translate(188,302)"/>
<path d="M0 0 C0.64661142 -0.00367669 1.29322284 -0.00735338 1.95942855 -0.01114148 C4.14196657 -0.02221873 6.32445706 -0.02602897 8.50701904 -0.02983093 C10.06553805 -0.03609261 11.62405556 -0.04273914 13.18257141 -0.04974365 C17.42857506 -0.06718262 21.67456741 -0.07771357 25.92059803 -0.08594918 C28.57182068 -0.09109385 31.22303979 -0.09716986 33.87425995 -0.10346031 C42.16468781 -0.12252159 50.45510672 -0.13674998 58.7455523 -0.14507228 C68.32378243 -0.15484519 77.90178148 -0.18116208 87.47993016 -0.22157317 C94.87699687 -0.25171359 102.27399728 -0.26653923 109.67112422 -0.26985329 C114.09182008 -0.27220645 118.51226935 -0.28120077 122.93289948 -0.30631447 C127.09274067 -0.32956365 131.25217241 -0.3338413 135.41206169 -0.32355309 C136.9386805 -0.32305682 138.46531923 -0.3294041 139.9918766 -0.34310913 C142.07718904 -0.36078234 144.16102479 -0.35374655 146.24633789 -0.34057617 C147.41295078 -0.34296453 148.57956367 -0.34535288 149.78152847 -0.34781361 C153.53126543 0.25176563 155.18502847 1.52218727 157.87713623 4.14717102 C161.16008883 10.71307622 158.87713623 18.80626584 158.87713623 26.14717102 C102.44713623 26.14717102 46.01713623 26.14717102 -12.12286377 26.14717102 C-12.12286377 0.04446538 -12.12286377 0.04446538 0 0 Z " fill="#FE9701" transform="translate(97.12286376953125,468.8528289794922)"/>
<path d="M0 0 C7.95811856 5.77378746 13.34931076 12.48529889 16 22 C16.99783085 32.44241589 16.41355806 41.22971251 9.94140625 49.69140625 C3.09822762 57.61933832 -4.04426165 63.13929146 -14.671875 64.2890625 C-26.36133233 64.65229422 -34.48195715 61.07817493 -42.91015625 53.21875 C-49.67456806 46.21018745 -52.17757291 38.52701095 -52.5 28.875 C-52.31233704 22.7491449 -51.12979497 18.23805963 -48 13 C-47.4225 11.96875 -46.845 10.9375 -46.25 9.875 C-35.39178425 -3.99938679 -15.74596193 -9.61502993 0 0 Z " fill="#FD9700" transform="translate(274,158)"/>
<path d="M0 0 C3 1 3 1 5 3.125 C12.4791955 10.8045311 21.80917138 14.39153671 32 17 C31.43174497 21.32329708 30.37874669 24.81760668 28.55078125 28.76953125 C28.03862061 29.89077393 27.52645996 31.0120166 26.9987793 32.16723633 C26.5868483 33.05736923 26.5868483 33.05736923 26.16659546 33.96548462 C24.69080535 37.1569394 23.23965417 40.35953013 21.7890625 43.5625 C21.48375107 44.2358992 21.17843964 44.9092984 20.86387634 45.60310364 C17.17132841 53.78220119 13.67653969 62.04503469 10.1875 70.3125 C9.87559723 71.05094147 9.56369446 71.78938293 9.24234009 72.55020142 C7.49079896 76.69841757 5.74342619 80.84836528 4 85 C3.34 85 2.68 85 2 85 C0.97350723 83.87474845 0.00412304 82.69717355 -0.9375 81.5 C-11.45958078 69.24588947 -26.10812987 62.68814738 -42 61 C-40.50464605 56.55547576 -38.0587791 53.1285398 -35.25 49.4375 C-30.79036191 43.46670172 -26.44950097 37.42596241 -22.1875 31.3125 C-21.6087915 30.48314941 -21.03008301 29.65379883 -20.43383789 28.79931641 C-19.24052289 27.08793126 -18.04774028 25.37617477 -16.85546875 23.6640625 C-13.63743467 19.04364305 -10.41302136 14.42769422 -7.1875 9.8125 C-6.28004028 8.51082886 -6.28004028 8.51082886 -5.35424805 7.18286133 C-4.79777588 6.3864624 -4.24130371 5.59006348 -3.66796875 4.76953125 C-3.17578857 4.06417236 -2.6836084 3.35881348 -2.17651367 2.63208008 C-1 1 -1 1 0 0 Z " fill="#FC5621" transform="translate(216,221)"/>
<path d="M0 0 C-1.07515809 8.87050296 -2.98856514 16.89103024 -6.125 25.25 C-6.52460938 26.33265137 -6.92421875 27.41530273 -7.3359375 28.53076172 C-12.14042129 41.33448295 -17.55296971 53.54573533 -25.20703125 64.91845703 C-27.93312622 69.14607163 -28.86042309 72.02030139 -28 77 C-26.30486401 80.16041034 -24.1975964 82.92344362 -22 85.75 C-21.11501831 86.93480957 -21.11501831 86.93480957 -20.2121582 88.14355469 C-17.63082155 91.59380377 -14.99820246 95.00296513 -12.35546875 98.40625 C-11.64003906 99.3446875 -10.92460937 100.283125 -10.1875 101.25 C-9.56230469 102.03890625 -8.93710937 102.8278125 -8.29296875 103.640625 C-6.6186912 106.69580216 -6.6780383 108.54386701 -7 112 C-8.41381836 114.4284668 -8.41381836 114.4284668 -10.40234375 116.76171875 C-11.5003833 118.05215088 -11.5003833 118.05215088 -12.62060547 119.36865234 C-16.48367907 123.64078525 -20.47056997 127.75975845 -24.5625 131.8125 C-25.37396484 132.63169922 -26.18542969 133.45089844 -27.02148438 134.29492188 C-38.283547 145.52062594 -38.283547 145.52062594 -44.1875 146.5625 C-47.60694694 145.87861061 -48.83149911 144.66892418 -51 142 C-49.89398438 141.38125 -49.89398438 141.38125 -48.765625 140.75 C-39.09113232 134.62828712 -29.59220324 123.43427219 -25 113 C-23.72811886 104.5207924 -28.01718395 99.20988528 -32.78930664 92.47460938 C-35.23714188 89.16408504 -37.72897204 85.88876137 -40.22851562 82.6171875 C-40.82986328 81.81796875 -41.43121094 81.01875 -42.05078125 80.1953125 C-42.59387939 79.48391113 -43.13697754 78.77250977 -43.6965332 78.03955078 C-45.04350421 75.93192842 -45.73907458 74.48485587 -46 72 C-44.63445993 69.37720057 -43.21886741 66.97766932 -41.625 64.5 C-29.66480248 45.05805566 -22.51908904 24.0293852 -17 2 C-15.10507994 1.66151348 -13.20901534 1.32943089 -11.3125 1 C-9.72888672 0.7215625 -9.72888672 0.7215625 -8.11328125 0.4375 C-5.34438562 0.04839547 -2.78708277 -0.03305658 0 0 Z " fill="#6F6F6F" transform="translate(448,295)"/>
<path d="M0 0 C7.74493916 4.47535963 14.1391961 11.86207411 20.375 18.1875 C21.25027344 19.06341797 22.12554687 19.93933594 23.02734375 20.84179688 C33.73053598 31.61852249 33.73053598 31.61852249 34.5546875 35.84375 C33.78506826 40.2229919 31.73076208 42.96549428 29.125 46.5 C28.38866333 47.54015259 28.38866333 47.54015259 27.63745117 48.60131836 C25.1637871 52.08219916 22.6237153 55.50814494 20.04296875 58.91015625 C19.58325684 59.52632812 19.12354492 60.1425 18.64990234 60.77734375 C17.7816492 61.9362826 16.89854162 63.08429369 15.99853516 64.21875 C13.99043326 66.89731071 13.00183081 68.99018126 12.38671875 72.2890625 C13.25646384 77.55185124 15.71715558 81.32073876 18.5 85.8125 C29.45904039 104.26091697 38.78964114 124.42994632 41 146 C39.29141784 145.85711146 37.5831436 145.71053911 35.875 145.5625 C34.44800781 145.44068359 34.44800781 145.44068359 32.9921875 145.31640625 C29.96712397 144.99652355 26.99496277 144.52878423 24 144 C23.78085937 143.12601563 23.56171875 142.25203125 23.3359375 141.3515625 C17.75039098 119.69054061 10.19723207 99.08145857 -1.37109375 79.84765625 C-1.90863281 78.90792969 -2.44617188 77.96820313 -3 77 C-3.515625 76.21882813 -4.03125 75.43765625 -4.5625 74.6328125 C-5.09725471 71.41473506 -4.55495126 70.81830243 -2.81640625 68.14453125 C-1.74973269 66.68720233 -0.66392191 65.24374765 0.4375 63.8125 C0.99356934 63.0587207 1.54963867 62.30494141 2.12255859 61.52832031 C3.23044439 60.02685624 4.34523867 58.53046224 5.46728516 57.03955078 C7.39614896 54.47285307 9.27086181 51.87109514 11.125 49.25 C11.64320313 48.53328125 12.16140625 47.8165625 12.6953125 47.078125 C15.67367056 42.33415348 17.09382096 37.58051247 16 32 C11.40230626 21.73311609 -0.7269549 9.18203007 -10 3 C-6.65735166 -0.08552154 -4.48941256 -0.43361665 0 0 Z " fill="#6F6F6F" transform="translate(407,71)"/>
<path d="M0 0 C6.99635617 3.98277419 11.40201646 9.27713495 13.8046875 17.02734375 C15.10742088 26.54643938 13.47037352 32.89218882 8.01171875 40.5390625 C3.62697109 45.48257447 -2.62499931 48.3394408 -9.07421875 49.58203125 C-16.94926259 49.96290108 -23.42467506 47.42162755 -29.26953125 42.16015625 C-35.45370672 35.49628582 -37.86739939 29.19299259 -37.60546875 20.09375 C-36.71747064 13.45490698 -33.73541983 8.10552927 -28.8203125 3.58984375 C-20.4282126 -2.75364932 -9.783414 -4.40456606 0 0 Z " fill="#030200" transform="translate(182.1953125,317.97265625)"/>
<path d="M0 0 C11.71833467 1.4743241 21.65548344 6.63051827 29 16 C36.59079933 27.88492635 38.9861169 39.56991306 36.34765625 53.42578125 C32.93243639 64.72678773 26.10332737 73.83710665 16 80 C4.22050761 85.34852628 4.22050761 85.34852628 -0.4140625 84.62109375 C-0.93742188 84.41613281 -1.46078125 84.21117187 -2 84 C-1.50371094 83.59910156 -1.00742188 83.19820313 -0.49609375 82.78515625 C8.36634879 75.36895671 16.25159733 66.43548626 17.6875 54.5625 C17.790625 53.386875 17.89375 52.21125 18 51 C18.33 50.34 18.66 49.68 19 49 C19.42230605 41.97793429 19.3071393 35.64998974 17 29 C16.86980469 28.06027344 16.73960937 27.12054688 16.60546875 26.15234375 C14.94372335 17.50054675 8.98968171 9.19174537 2.1875 3.75 C1.1046875 2.88375 1.1046875 2.88375 0 2 C0 1.34 0 0.68 0 0 Z " fill="#F17A00" transform="translate(176,299)"/>
<path d="M0 0 C2.23656047 2.23656047 2.72380623 3.65664226 3.72412109 6.62646484 C4.05141205 7.58861908 4.378703 8.55077332 4.71591187 9.54208374 C5.06489532 10.58780548 5.41387878 11.63352722 5.7734375 12.7109375 C6.32096176 14.3287059 6.32096176 14.3287059 6.87954712 15.97915649 C8.05024644 19.44259373 9.21268993 22.90873948 10.375 26.375 C11.15050567 28.67335801 11.92654121 30.9715373 12.703125 33.26953125 C14.47436969 38.51599867 16.24447696 43.76281069 17.99627686 49.01580811 C18.69964181 51.1069983 19.4156141 53.19397062 20.14093018 55.27764893 C20.50772888 56.34183044 20.87452759 57.40601196 21.25244141 58.50244141 C21.58724518 59.46115143 21.92204895 60.41986145 22.26699829 61.40762329 C23 64 23 64 23 68 C17.72 68 12.44 68 7 68 C5.09700218 62.43587943 3.19477655 56.87149563 1.29321289 51.30688477 C0.64855935 49.42074758 0.00370843 47.53467785 -0.64135742 45.64868164 C-2.18931311 41.12268534 -3.73392485 36.59562309 -5.27099609 32.06591797 C-6.36209207 28.85392501 -7.4732841 25.65047319 -8.60791016 22.45361328 C-8.84838577 21.76469498 -9.08886139 21.07577667 -9.33662415 20.36598206 C-9.97148992 18.54774519 -10.61585321 16.73283217 -11.26098633 14.91821289 C-11.99485116 12.02033169 -12.24131712 10.69021872 -11 8 C-8.25 6 -8.25 6 -5 4 C-3.31916921 2.68456721 -1.6475884 1.35683751 0 0 Z " fill="#D34114" transform="translate(212,384)"/>
<path d="M0 0 C2.76655418 1.29108381 5.04962067 2.7064804 7.3984375 4.65234375 C8.03652344 5.17675049 8.67460937 5.70115723 9.33203125 6.24145508 C10.00621094 6.8011499 10.68039062 7.36084473 11.375 7.9375 C12.79868831 9.10773364 14.22318442 10.27698513 15.6484375 11.4453125 C16.36870117 12.03602539 17.08896484 12.62673828 17.83105469 13.23535156 C21.18942576 15.9677138 24.59055993 18.64430042 28 21.3125 C28.60505371 21.7861499 29.21010742 22.2597998 29.83349609 22.74780273 C31.22145131 23.83299421 32.61057903 24.91668584 34 26 C32.700625 27.423125 32.700625 27.423125 31.375 28.875 C28.16205316 32.59805925 25.72623522 36.59883978 23.296875 40.86328125 C22 43 22 43 20 45 C16.46156444 43.09853844 12.92358135 41.19623779 9.38598633 39.29321289 C8.18656123 38.64813448 6.98702019 38.00327161 5.78735352 37.35864258 C-1.16901964 33.62049968 -8.11191976 29.86278039 -15 26 C-14.505 24.515 -14.505 24.515 -14 23 C-13.34 23 -12.68 23 -12 23 C-11.72929687 22.42507812 -11.45859375 21.85015625 -11.1796875 21.2578125 C-9.98534811 18.97195764 -8.62010695 16.97434706 -7.125 14.875 C-3.94113596 10.1850434 -1.88976014 5.32467711 0 0 Z " fill="#FA5521" transform="translate(305,201)"/>
<path d="M0 0 C4.62 1.32 9.24 2.64 14 4 C13.20595274 8.76428356 12.49927799 11.55702703 10.55078125 15.76953125 C10.03862061 16.89077393 9.52645996 18.0120166 8.9987793 19.16723633 C8.5868483 20.05736923 8.5868483 20.05736923 8.16659546 20.96548462 C6.69080535 24.1569394 5.23965417 27.35953013 3.7890625 30.5625 C3.48375107 31.2358992 3.17843964 31.9092984 2.86387634 32.60310364 C-0.82867159 40.78220119 -4.32346031 49.04503469 -7.8125 57.3125 C-8.12440277 58.05094147 -8.43630554 58.78938293 -8.75765991 59.55020142 C-10.50920104 63.69841757 -12.25657381 67.84836528 -14 72 C-14.66 72 -15.32 72 -16 72 C-17.5859375 70.390625 -17.5859375 70.390625 -19.375 68.25 C-21.81617866 65.3756268 -24.27649992 62.61456008 -27 60 C-26.34 60 -25.68 60 -25 60 C-24.91387451 59.3598999 -24.82774902 58.7197998 -24.73901367 58.06030273 C-23.71443108 53.8174409 -21.95348936 50.01180038 -20.17578125 46.03515625 C-19.79189743 45.16539658 -19.40801361 44.2956369 -19.01249695 43.39952087 C-17.78387955 40.61839948 -16.54842629 37.84037998 -15.3125 35.0625 C-14.09916046 32.32347369 -12.88724645 29.58382001 -11.67550659 26.84408569 C-10.88876666 25.06552319 -10.10144059 23.28721984 -9.31350708 21.50918579 C-6.15002683 14.36385311 -3.05910089 7.1906168 0 0 Z " fill="#D64214" transform="translate(234,234)"/>
<path d="M0 0 C7.37388178 -0.64120711 13.44883692 1.45621915 19.46484375 5.765625 C27.0138994 12.14652395 32.37360544 19.44470813 33.3359375 29.515625 C33.46971082 42.30435448 31.12969275 49.6054582 22.2265625 58.87109375 C15.46375357 65.33728825 8.23316115 68.17555185 -1.0625 68.1875 C-2.70883668 68.14007466 -4.35507382 68.08301497 -6 68 C-6 67.67 -6 67.34 -6 67 C-5.01 67.020625 -4.02 67.04125 -3 67.0625 C1.81764149 66.35058132 4.15846874 63.30172836 7.13671875 59.67578125 C14.39649909 49.25031053 15.96228762 38.49618578 15 26 C12.70841688 15.8122762 6.74640956 7.73852861 0 0 Z " fill="#F17A00" transform="translate(257,154)"/>
<path d="M0 0 C14.79791525 1.30166847 14.79791525 1.30166847 18.68408203 4.29882812 C23.21065081 10.150615 21.14838536 22.49218577 21.125 29.5 C21.13080078 31.23830078 21.13080078 31.23830078 21.13671875 33.01171875 C21.11615102 51.21415837 21.11615102 51.21415837 18.125 56 C13.33418304 59.06612286 7.34246634 60.65844913 1.66015625 59.5390625 C1.11230469 59.36117187 0.56445312 59.18328125 0 59 C0.31735107 58.44940918 0.63470215 57.89881836 0.96166992 57.33154297 C4.73793551 48.8520376 3.18294104 36.96556379 3.1875 27.875 C3.19974609 26.58207031 3.21199219 25.28914063 3.22460938 23.95703125 C3.23736865 15.59545321 2.65115412 7.95346235 0 0 Z " fill="#6E6E6E" transform="translate(474,226)"/>
<path d="M0 0 C5.47186913 2.15896877 9.59318905 5.58467535 12 11 C12.80559723 17.20402463 12.71322153 22.75027301 9 28 C3.69881694 32.89339974 -0.40254181 34.47365717 -7.53125 34.31640625 C-12.37420973 33.69571046 -15.05418745 31.02463027 -18.25 27.5625 C-21.55452614 22.72372958 -22.69981043 18.89840218 -22 13 C-17.52673476 3.12924117 -10.75786626 -1.38405297 0 0 Z " fill="#F07A00" transform="translate(363,239)"/>
<path d="M0 0 C20.64462754 -0.0934181 41.28922025 -0.16396684 61.93401623 -0.20724869 C71.51964061 -0.22787887 81.10513371 -0.25600817 90.69067383 -0.30175781 C99.04488932 -0.34161163 107.39900974 -0.3674295 115.75331765 -0.37635398 C120.17739748 -0.3815712 124.60120529 -0.39384295 129.02519798 -0.42292023 C133.18911069 -0.45006641 137.35263929 -0.45844667 141.51663208 -0.45243073 C143.04486999 -0.45353133 144.57312072 -0.46149021 146.10128212 -0.4768219 C148.18881703 -0.49673865 150.27490379 -0.49193476 152.36247253 -0.48101807 C154.1143401 -0.48654882 154.1143401 -0.48654882 155.90159893 -0.49219131 C159.65483868 0.1040233 161.30643201 1.37255063 164 4 C167.2829526 10.5659052 165 18.65909482 165 26 C108.57 26 52.14 26 -6 26 C-6 19.4 -6 12.8 -6 6 C-5.67 6 -5.34 6 -5 6 C-5 12.27 -5 18.54 -5 25 C45.49 25 95.98 25 148 25 C147.73099247 13.39043266 147.73099247 13.39043266 146 2 C97.82 1.67 49.64 1.34 0 1 C0 0.67 0 0.34 0 0 Z " fill="#E07900" transform="translate(91,469)"/>
<path d="M0 0 C5.61 0 11.22 0 17 0 C17 14.52 17 29.04 17 44 C11.39 44 5.78 44 0 44 C0 29.48 0 14.96 0 0 Z " fill="#FC5621" transform="translate(350,289)"/>
<path d="M0 0 C2.4178712 -0.10826289 4.83087556 -0.18739789 7.25 -0.25 C8.27287109 -0.30027344 8.27287109 -0.30027344 9.31640625 -0.3515625 C12.46667518 -0.41273277 14.51964405 -0.34250314 17.12084961 1.51220703 C19.64137244 4.84910812 20.13484722 8.16018304 20.73828125 12.1953125 C20.8681694 12.98396698 20.99805756 13.77262146 21.13188171 14.58517456 C21.40228791 16.24647473 21.66489464 17.90906094 21.92016602 19.57275391 C22.31263379 22.12587037 22.72939593 24.67410411 23.15039062 27.22265625 C23.41028025 28.83831292 23.668792 30.45419196 23.92578125 32.0703125 C24.04963699 32.83489777 24.17349274 33.59948303 24.30110168 34.38723755 C25.11665773 39.76668455 25.11665773 39.76668455 24 42 C15.585 40.02 15.585 40.02 7 38 C6.57847656 35.50824219 6.15695312 33.01648437 5.72265625 30.44921875 C5.31282531 28.03644239 4.90217987 25.62380598 4.49145508 23.21118164 C4.20642256 21.53424304 3.92223717 19.85716023 3.63891602 18.17993164 C3.23155727 15.76930957 2.82115597 13.35922237 2.41015625 10.94921875 C2.28407486 10.19912033 2.15799347 9.44902191 2.02809143 8.67619324 C1.51617876 5.68912346 0.96012622 2.88037866 0 0 Z " fill="#6E6E6E" transform="translate(265,18)"/>
<path d="M0 0 C11.55 0 23.1 0 35 0 C35 5.61 35 11.22 35 17 C23.45 17 11.9 17 0 17 C0 11.39 0 5.78 0 0 Z " fill="#01A4ED" transform="translate(341,350)"/>
<path d="M0 0 C-0.73647837 5.18204638 -1.50012937 10.35908929 -2.28881836 15.53344727 C-2.55309591 17.29276217 -2.81002192 19.05319821 -3.05932617 20.81469727 C-3.41981572 23.35245769 -3.80690138 25.88495798 -4.19921875 28.41796875 C-4.304655 29.20149216 -4.41009125 29.98501556 -4.51872253 30.7922821 C-5.35296509 35.95037144 -6.68126609 38.6988731 -11 42 C-14.3125 42.3125 -14.3125 42.3125 -17 42 C-17.01981934 41.36497559 -17.03963867 40.72995117 -17.06005859 40.07568359 C-17.15581122 37.17506674 -17.26528546 34.27512095 -17.375 31.375 C-17.42140625 29.87646484 -17.42140625 29.87646484 -17.46875 28.34765625 C-17.67614222 23.12828527 -18.28801985 18.95883906 -20 14 C-19.7578125 11.2265625 -19.7578125 11.2265625 -19.125 8.625 C-18.92132813 7.75101562 -18.71765625 6.87703125 -18.5078125 5.9765625 C-18.34023438 5.32429688 -18.17265625 4.67203125 -18 4 C-17.16855469 3.79503906 -16.33710938 3.59007812 -15.48046875 3.37890625 C-14.39378906 3.10949219 -13.30710937 2.84007812 -12.1875 2.5625 C-10.56908203 2.16224609 -10.56908203 2.16224609 -8.91796875 1.75390625 C-2.12953368 0 -2.12953368 0 0 0 Z " fill="#6F6F6F" transform="translate(290,452)"/>
<path d="M0 0 C1.1446875 0.0928125 1.1446875 0.0928125 2.3125 0.1875 C6.86378684 7.29888569 7.31807776 13.85280737 6.3125 22.1875 C5.27567951 25.25327093 4.07050751 27.44061327 2.3125 30.1875 C0.1875 30.625 0.1875 30.625 -2.6875 30.1875 C-7.58117354 25.95189992 -10.28039194 21.26988958 -11.125 14.875 C-10.44660314 9.15708361 -6.44960489 0.44997243 0 0 Z " fill="#FA9500" transform="translate(351.6875,240.8125)"/>
<path d="M0 0 C4.45850936 0.79616239 5.90783917 1.93313458 8.5 5.625 C9.12601538 9.58976406 9.15946039 11.62262021 6.9375 15 C3.67160572 17.17726285 1.42016134 17.625 -2.5 17.625 C-5.30189446 15.85858828 -7.01524911 14.59450178 -8.5 11.625 C-9.03507099 7.6119676 -8.83051628 6.08571967 -6.4375 2.75 C-3.5 0.625 -3.5 0.625 0 0 Z " fill="#989898" transform="translate(170.5,332.375)"/>
<path d="M0 0 C0.763125 0.20625 1.52625 0.4125 2.3125 0.625 C2.3125 1.285 2.3125 1.945 2.3125 2.625 C-17.75534888 12.25645721 -17.75534888 12.25645721 -25.6875 14.625 C-26.3475 14.295 -27.0075 13.965 -27.6875 13.625 C-27.03676514 13.27195801 -26.38603027 12.91891602 -25.71557617 12.55517578 C-22.76791684 10.95492013 -19.82144736 9.35248599 -16.875 7.75 C-15.33875977 6.91662109 -15.33875977 6.91662109 -13.77148438 6.06640625 C-12.78857422 5.53144531 -11.80566406 4.99648438 -10.79296875 4.4453125 C-9.88699951 3.95305176 -8.98103027 3.46079102 -8.04760742 2.95361328 C-2.24455323 -0.31319347 -2.24455323 -0.31319347 0 0 Z " fill="#6B6B6B" transform="translate(343.6875,428.375)"/>
<path d="M0 0 C6.07556943 1.87790328 11.93715557 4.14147553 17.8125 6.5625 C18.92419556 7.01991577 18.92419556 7.01991577 20.05834961 7.48657227 C23.43105751 8.88723666 26.76680063 10.29429639 30 12 C30 12.66 30 13.32 30 14 C27.52393303 14.93092441 25.7428044 15.28604125 23.23242188 14.31933594 C21.19478229 13.23363977 19.22152195 12.07659904 17.25 10.875 C15.82818963 10.04025448 14.40631499 9.20561845 12.984375 8.37109375 C12.30181641 7.96358887 11.61925781 7.55608398 10.91601562 7.13623047 C8.47118182 5.68640165 5.99109843 4.30601745 3.5 2.9375 C2.8090625 2.55464844 2.118125 2.17179687 1.40625 1.77734375 C0.9421875 1.52082031 0.478125 1.26429687 0 1 C0 0.67 0 0.34 0 0 Z " fill="#6B6B6B" transform="translate(316,69)"/>
</svg>
